<svg width="107" height="40" viewBox="0 0 107 40" fill="none" xmlns="http://www.w3.org/2000/svg">
<path d="M3.61269 0.0782111C4.45504 0.262175 5.73171 1.12658 6.48201 1.58876C10.8657 4.2892 11.5248 8.9442 13.5144 13.2335C13.3441 9.5128 13.1044 5.71185 13.705 2.01666C13.7546 1.71123 13.8384 1.11789 14.2249 1.19403C14.6318 1.55146 14.8191 2.52349 14.9252 3.03936C15.6311 6.47124 15.298 9.82578 14.9822 13.2807C14.9078 14.0947 14.7501 15.154 14.7252 15.9104C14.7124 16.2996 15.2765 17.7327 15.4408 18.158C15.5488 17.4762 15.5853 16.6662 15.7065 15.8953C16.3221 11.9824 17.3906 8.34665 20.354 5.52989C20.5665 5.32781 20.7178 5.2359 20.9898 5.25381L21.0469 5.34319C21.1111 6.21441 20.7556 8.98404 20.5119 9.87612C19.5262 13.4839 17.6864 16.9563 16.1326 20.3549C16.3698 21.2355 16.5771 22.1668 16.8096 23.0585C17.1245 22.1856 17.4088 21.0535 17.7075 20.1455C18.8151 16.7779 20.1597 13.7828 22.9245 11.4411C23.4698 10.9792 24.9936 9.70044 25.6494 9.74637C26.7028 10.5153 22.4614 17.2775 21.8955 18.1831C20.38 20.5703 18.8415 22.943 17.2802 25.3007C17.2696 25.9885 17.4334 27.3436 17.5135 28.0638C18.4267 25.7503 19.2322 23.7872 20.8606 21.8035C22.7591 19.5405 25.0737 17.4594 27.6411 15.9816C27.9744 15.7898 28.759 15.2926 29.0977 15.5732C29.3362 16.5524 24.4723 22.5224 23.7429 23.4009C21.8169 25.7315 19.8059 27.9906 17.7136 30.1736C17.6895 30.7503 17.7576 31.7843 17.7663 32.4178C17.811 34.4872 17.5748 36.6054 17.2758 38.6546C17.1362 39.8455 16.5263 40.3549 15.411 39.7341C15.0401 39.5277 15.524 37.2957 15.5937 36.8806C15.9214 34.928 16.186 33.1103 16.0921 31.1234C14.6899 30.2306 9.17085 28.7807 7.31893 28.3296C6.47813 28.1248 5.24584 27.9608 4.40737 27.6662C4.23854 27.6069 4.2216 27.4975 4.17341 27.3524C4.18954 27.3207 4.26438 27.1898 4.29015 27.1759C8.09641 25.1355 13.2292 26.2288 16.1121 28.9958C16.0501 28.1937 15.9217 27.3835 15.8075 26.5861C14.9396 26.1839 13.6838 25.7539 12.7799 25.4397C10.6239 24.6927 8.44385 24.0168 6.24329 23.4132C5.367 23.1724 4.50263 22.9461 3.61583 22.7449C3.21123 22.6532 2.20715 22.5335 2.09656 22.1235C2.30877 21.5488 5.17019 21.1586 5.84083 21.0924C9.63765 20.7175 12.6496 22.0368 15.5408 24.3704C15.4823 24.0223 15.4205 23.6748 15.3553 23.3279C15.2579 22.825 15.1242 22.2299 14.7464 21.8597C13.7263 20.8602 5.39104 17.8399 3.59234 17.2096C2.63732 16.875 0.787281 16.4059 0.00176829 15.8756C-0.062765 15.2124 1.65748 15.1329 2.14362 15.0895C5.3338 14.7965 8.52887 15.5959 11.2039 17.3562C12.2946 18.0895 13.6066 19.2481 14.6378 20.1102C14.1692 18.9314 13.8101 17.5553 12.7687 16.7807C9.03282 14.0019 4.8348 11.8987 0.641277 9.90687C0.381671 9.78354 -0.0450246 9.53647 0.0231906 9.22161C0.383948 8.94614 1.48537 9.08525 1.94607 9.11987C4.4709 9.30972 6.88488 10.0688 9.00002 11.4772C10.0955 12.2067 11.0321 13.156 12.1235 13.8804C11.5368 12.7385 9.75868 10.3711 8.947 9.18792C7.19583 6.6306 5.54226 4.00798 3.98998 1.32565C3.70413 0.823226 3.47338 0.582175 3.61269 0.0782111Z" fill="white"/>
<path d="M57.2886 0.0111626C57.9728 -0.00153842 58.679 0.00434395 59.3658 0.00133581C59.3337 1.97501 59.3652 3.95697 59.3498 5.93151C59.3438 6.69137 59.1838 6.92467 59.896 7.28197C60.0052 7.70184 59.957 8.8452 59.9503 9.33679C58.7245 9.40023 57.8362 9.69804 57.2926 8.36824C56.7711 8.85202 56.6928 9.12048 55.937 9.30624C55.3466 9.45144 54.9831 9.4251 54.3893 9.34508C51.5846 8.53055 51.2158 4.82519 53.199 3.06516C54.4141 1.98684 55.9986 2.36186 56.9492 3.55782C56.8883 2.588 56.733 1.06943 56.83 0.14586C56.9485 0.0120984 57.0657 0.0415114 57.2886 0.0111626ZM55.9611 7.37515C57.6139 6.88924 57.1474 4.35719 55.3981 4.52965C54.0392 5.24385 54.0947 7.29059 55.9611 7.37515Z" fill="white"/>
<path d="M54.5754 32.9674C59.1771 32.8199 59.9255 39.5239 54.7575 39.9242C50.2193 40.2191 49.2638 33.3038 54.5754 32.9674ZM54.957 37.8711C56.3306 37.1691 56.1198 34.938 54.3605 35.0211C53.9314 35.2509 53.6549 35.4417 53.5358 35.9398C53.2559 37.1112 53.7593 37.9165 54.957 37.8711Z" fill="white"/>
<path d="M95.6833 32.9664C96.6285 32.9868 97.4726 33.1542 98.2043 33.7603C100.313 35.5062 99.6095 39.1319 96.8829 39.7871C96.5475 39.8678 96.2556 39.8943 95.9196 39.9258C91.016 40.0167 90.6277 33.2868 95.6833 32.9664ZM95.9437 37.8838C97.4593 37.4402 97.2544 34.9205 95.5192 35.0096C94.0867 35.6746 94.2446 37.8381 95.9437 37.8838Z" fill="white"/>
<path d="M74.6611 2.47924C77.3314 2.08832 78.9976 4.16908 78.6991 6.73883C77.1714 6.75741 75.4523 6.79672 73.9421 6.71149C74.4783 8.05365 75.3606 7.91508 76.3192 7.13056C76.5308 6.95756 77.7786 7.39922 78.0792 7.49C78.1153 7.49688 78.2706 7.55197 78.3155 7.56681L78.3429 7.68954C78.0437 8.6234 76.7356 9.19187 75.8426 9.36079C70.7616 10.3217 69.635 3.05727 74.6611 2.47924ZM73.9441 5.21645C74.4636 5.22019 74.983 5.22066 75.5025 5.21778L76.1954 5.23115C75.8975 4.42357 75.6659 4.16895 74.7728 4.20056C74.2152 4.46348 74.0967 4.61609 73.9441 5.21645Z" fill="white"/>
<path d="M46.7063 17.7228C47.4725 17.6752 48.5206 17.784 49.1964 18.18C50.8426 19.1444 50.1959 21.1719 50.4694 22.2633C50.5662 22.4247 50.7889 22.4667 50.9758 22.5282L50.9733 24.5494C49.6796 24.7504 48.8567 24.9357 48.3043 23.5954C47.3045 24.7097 46.0713 24.9446 44.7174 24.311C44.3236 24.0205 43.9642 23.6895 43.8374 23.2166C43.2912 21.1807 44.9819 20.1297 46.7876 20.2503C47.0989 20.2711 47.748 20.4285 47.9787 20.3511L48.0245 20.2211C47.972 19.9399 47.5941 19.4647 47.3075 19.4031C46.3297 19.1928 45.5366 19.598 44.7229 20.0888L44.0334 18.5721C44.8451 18.0168 45.7468 17.8147 46.7063 17.7228ZM47.2703 22.8467C47.6521 22.6494 48.2248 22.2848 47.8225 21.8019C47.5636 21.4911 47.0123 21.545 46.6478 21.5726C45.3433 22.2855 46.3237 23.2167 47.2703 22.8467Z" fill="white"/>
<path d="M71.5515 32.965C74.1054 33.0368 75.5554 34.6476 75.2046 37.2043C74.649 37.203 70.7074 37.1129 70.5614 37.2897C70.7147 38.5015 72.2464 38.3945 72.9085 37.5241L74.9529 38.0846C73.8055 40.1647 70.8506 40.512 69.0646 39.0659C67.1902 37.5483 67.7277 34.0666 70.0406 33.2517C70.6257 33.0456 70.9156 33.0043 71.5515 32.965ZM70.449 35.7406L71.8387 35.7394L72.711 35.7358C72.4332 35.0183 72.2551 34.6999 71.4096 34.6884C70.7228 34.9118 70.6498 35.0803 70.449 35.7406Z" fill="white"/>
<path d="M104.888 32.9652C106.409 32.9197 106.973 34.0386 106.984 35.3971C106.996 36.8524 106.979 38.3062 107 39.7616C106.174 39.785 105.302 39.7677 104.472 39.763C104.392 38.8685 104.722 35.8768 104.257 35.2803C104.176 35.1772 104.053 35.1015 103.923 35.0859C103.662 35.0542 103.344 35.2221 103.147 35.3798C102.878 35.5937 102.709 35.8571 102.666 36.1976L102.674 39.7824C101.999 39.9496 100.871 39.8959 100.151 39.8856C100.039 37.9573 100.136 35.0186 100.134 33.0098C100.847 32.9828 101.684 33.0073 102.408 33.0129L102.422 34.0392C103.224 33.1764 103.745 33.0513 104.888 32.9652Z" fill="white"/>
<path d="M57.462 15.7901C57.9949 15.7122 59.4837 15.7567 60.0527 15.7655C60.0935 16.3087 60.0668 17.2691 60.0668 17.8442L61.2965 17.834L61.2938 19.6876L60.0708 19.6908C60.0815 20.4075 59.9925 21.1486 60.0152 21.8393C60.0427 22.6785 60.8266 22.4347 61.3715 22.2749C61.5154 22.9036 61.6547 23.5332 61.7905 24.1638C60.8092 24.6341 58.8852 25.04 58.0598 24.1509C57.1942 23.2176 57.4533 20.9064 57.4633 19.6933L56.6339 19.6754C56.6265 19.0497 56.4465 18.374 56.7685 17.9346C56.9572 17.7953 57.2103 17.8335 57.4506 17.8405L57.462 15.7901Z" fill="white"/>
<path d="M67.4513 2.4779C67.9125 2.43298 68.3778 2.45999 68.831 2.55792C69.9148 2.79951 70.5514 3.37226 71.1311 4.27697C70.4617 4.52464 69.495 4.78902 68.7928 5.00354C67.4272 3.66712 66.3768 5.1135 66.7939 6.7649C67.5195 7.56213 67.9908 7.58285 68.7794 6.87821L70.8493 7.50624L71.0193 7.56941L71.0542 7.6896C70.0828 9.5598 66.9612 9.99471 65.4617 8.68095C63.0718 6.58782 64.0238 2.90058 67.4513 2.4779Z" fill="white"/>
<path d="M47.3491 32.9653C48.8301 32.9191 49.9426 33.5425 50.6865 34.803C49.9087 35.0261 49.1128 35.2793 48.3366 35.5155C47.9712 35.1372 47.8323 35.101 47.3442 34.9552C46.5943 35.2489 46.1822 35.5926 46.2044 36.4986C46.2338 37.6951 47.4135 38.4278 48.3093 37.3917C49.1051 37.616 49.8974 37.8529 50.6857 38.1024C50.5616 38.2991 50.4295 38.4915 50.2869 38.6762C49.1034 40.2385 46.2835 40.3023 44.8707 39.0765C43.0166 37.4678 43.464 34.121 45.8394 33.254C46.4307 33.0381 46.7227 33.0064 47.3491 32.9653Z" fill="white"/>
<path d="M79.3404 32.9653C80.8533 32.955 81.8996 33.5059 82.6815 34.7921L80.3278 35.5148C78.7185 33.8974 77.5584 36.452 78.6448 37.6227C79.1228 38.1371 79.8766 37.8445 80.3178 37.3927C81.1077 37.6207 81.8943 37.8564 82.6795 38.0999C81.431 40.1389 78.7727 40.5442 76.8809 39.0896C74.9918 37.6374 75.4918 34.0172 77.8322 33.2547C78.4326 33.0592 78.6803 33.0113 79.3404 32.9653Z" fill="white"/>
<path d="M83.8584 30.9997L86.3567 31.0037C86.4029 31.5469 86.3915 32.4399 86.3996 33.0103C86.838 33.003 87.1681 32.9951 87.6039 33.0402L87.6025 34.9338L86.3929 34.9393C86.3955 35.1962 86.3929 35.4577 86.3909 35.715C86.3788 36.9775 85.8707 38.1056 87.6835 37.5216C87.8054 38.1185 87.952 38.7406 88.0845 39.3377L88.0423 39.4541C86.7128 39.9893 84.2955 40.4551 83.9367 38.5759C83.7586 37.643 83.8497 35.9426 83.855 34.9365L83.047 34.9394C83.0544 34.4037 82.8569 33.4585 83.1769 33.0935C83.3777 32.9782 83.6241 33.0557 83.8577 33.0981L83.8584 30.9997Z" fill="white"/>
<path d="M44.4564 0.0116985L46.4913 0C46.4888 0.953647 46.4082 6.36542 46.5818 6.93931C46.9441 7.38538 47.2804 7.21325 47.7541 7.04546C47.8718 7.66133 47.9692 8.3546 48.0691 8.97963L47.4196 9.22877C45.7124 9.66502 44.1263 9.48373 43.9994 7.38638C43.86 5.08035 44.0154 2.74563 43.9309 0.43491C43.9138 -0.032087 44.0954 0.04305 44.4564 0.0116985Z" fill="white"/>
<path d="M63.7279 30.517L66.1706 30.5212C66.17 32.7883 66.085 35.1405 66.2664 37.385C66.3112 37.9362 67.1567 37.6588 67.4419 37.5541C67.5222 37.9207 67.8041 39.2844 67.64 39.5503C66.257 40.0633 64.0244 40.3665 63.7741 38.3334C63.6696 37.484 63.7198 36.5247 63.7212 35.6621L63.7279 30.517Z" fill="white"/>
<path d="M59.1516 30.5251L61.5757 30.5176C61.5723 32.7838 61.4893 35.1319 61.6533 37.3797C61.6921 37.9136 62.5678 37.6575 62.8442 37.5501C62.9286 37.9812 63.1461 39.0564 63.1328 39.4699L63.0223 39.5612C62.1005 39.9001 60.443 40.2284 59.6858 39.4394C58.9367 38.6584 59.1469 36.7949 59.1476 35.7482L59.1516 30.5251Z" fill="white"/>
<path d="M55.8734 17.7102L56.1753 17.7198C56.5114 17.9977 56.3326 19.4596 56.3025 19.9097C55.4028 19.9646 54.9389 19.9657 54.1931 20.5116L54.1938 24.5441C53.422 24.607 52.6119 24.6289 51.8401 24.553C51.7229 24.3897 51.7631 24.3702 51.7571 24.1287L51.7651 17.8379C52.4667 17.8633 53.2787 17.8401 53.9896 17.8347L53.985 19.0639C54.068 18.9328 54.153 18.8033 54.2413 18.6757C54.6664 18.0643 55.1752 17.8381 55.8734 17.7102Z" fill="white"/>
<path d="M88.8055 33.0241C89.6001 32.9817 90.5119 32.9876 91.3058 33.0155C91.3741 33.7029 91.3373 35.3153 91.3319 36.053C91.3239 37.1168 91.3835 38.7734 91.2757 39.791C90.8145 39.969 89.3839 39.8868 88.8075 39.8714C88.7653 37.6289 88.8015 35.2754 88.8055 33.0241Z" fill="white"/>
<path d="M48.7357 2.58773L51.176 2.58586C51.2059 4.79063 51.1774 7.07133 51.1771 9.28178C50.4854 9.28178 49.3891 9.25377 48.7354 9.3255L48.7357 2.58773Z" fill="white"/>
<path d="M60.8888 2.5868L63.3088 2.58707L63.3095 9.27783C62.6226 9.29167 61.5301 9.24695 60.8841 9.32764L60.8888 2.5868Z" fill="white"/>
<path d="M88.8001 30.5132L91.3132 30.5328C91.342 31.1969 91.3293 31.8621 91.2764 32.5247C90.9885 32.5913 89.2118 32.5641 88.8035 32.5626L88.8001 30.5132Z" fill="white"/>
<path d="M48.7335 0.00601563L51.1743 0.00247313L51.178 2.05676L48.7299 2.05583L48.7335 0.00601563Z" fill="white"/>
<path d="M61.0468 0.011898C61.7892 -0.0032095 62.5631 0.00514703 63.3081 0.00247313C63.3122 0.568404 63.345 1.47118 63.2854 2.00917L63.1783 2.05576L60.8788 2.0569C60.8815 1.6643 60.852 0.38464 60.9243 0.0616328L61.0468 0.011898Z" fill="white"/>
</svg>
