<svg width="86" height="40" viewBox="0 0 86 40" fill="none" xmlns="http://www.w3.org/2000/svg">
<path d="M39.313 0.01759C48.6017 -0.12727 63.9469 0.552359 72.3802 4.70887C72.4487 8.62233 72.3864 12.7434 72.3864 16.6711V39.981H70.9878V5.51181C65.5901 3.28287 58.7215 2.3393 52.9194 1.83831C50.1154 1.59535 47.3039 1.45401 44.4899 1.41453C35.0123 1.23594 21.5696 1.95201 12.7429 5.51838V39.981H11.355V4.72262C18.3621 1.1289 31.529 0.155267 39.313 0.01759Z" fill="#E60004"/>
<path d="M54.3428 5.28322H55.7396L55.7391 39.981H54.3428V5.28322Z" fill="#E60004"/>
<path d="M40.5946 5.28322H41.9913L41.9904 39.981H40.5946V5.28322Z" fill="#E60004"/>
<path d="M24.719 5.30306H26.1088V40H24.719V5.30306Z" fill="#E60004"/>
<path d="M28.1594 17.9192L31.7274 17.9158C33.6394 17.9149 35.7616 17.7094 37.2626 19.1246C38.8382 20.6099 39.0266 22.9628 38.8453 24.9954C38.7326 26.26 38.3472 27.2716 37.4838 28.2029C37.4552 28.236 37.4257 28.2681 37.3948 28.2992C35.8986 29.8279 33.5599 29.6512 31.599 29.6507L28.1594 29.6477V17.9192ZM31.7707 26.9801C32.7583 26.9831 33.9438 27.1235 34.6717 26.4051L34.6884 26.3886C35.4258 25.3672 35.3377 23.7425 35.1912 22.5502C34.9405 20.5164 33.3497 20.5665 31.7707 20.5763V26.9801Z" fill="#0E0E0E"/>
<path d="M76.1547 17.9192H85.8178V20.4171H79.7703V22.2893H85.3844V24.6831H79.7703V26.9922H86V29.6477H76.1547V17.9192Z" fill="#0E0E0E"/>
<path d="M63.5273 17.7158C66.3898 17.8071 67.8541 18.6225 68.8574 21.3712C67.8793 21.5529 66.6586 21.8586 65.6705 22.0796C65.5073 21.6283 65.2675 21.0939 64.8751 20.8373C63.2 19.7421 61.4065 20.9171 61.2785 22.8009C61.1577 24.1206 61.0863 26.5927 62.729 27.0334C64.6315 27.544 65.3903 26.4049 65.8084 24.8554L67.8213 25.4675L68.9626 25.818C68.3013 28.3594 66.7666 29.7842 64.0744 29.8449C62.4065 29.8938 60.7543 29.7143 59.465 28.5533C57.0968 26.4214 56.9636 21.7051 59.0735 19.3678C60.2281 18.0891 61.8504 17.7753 63.5273 17.7158Z" fill="#0E0E0E"/>
<path d="M0 17.9192H3.61186V26.7636H9.24269V29.6477H0V17.9192Z" fill="#0E0E0E"/>
<path d="M16.4639 17.9193L20.0798 17.9192V29.6477H16.4639V17.9193Z" fill="#0E0E0E"/>
<path d="M46.3819 17.9192H49.9975V29.6477H46.3819V17.9192Z" fill="#0E0E0E"/>
</svg>
