<svg width="109" height="40" viewBox="0 0 109 40" fill="none" xmlns="http://www.w3.org/2000/svg">
<path d="M52.3648 0.00647864C52.4122 0.00338063 52.4633 -0.000336991 52.5127 2.44445e-05C58.4742 0.044481 66.1312 1.20892 70.6358 5.45888C71.4887 6.26375 72.3978 7.70763 72.5539 8.84992C72.6652 9.66062 72.6271 11.1118 72.6271 11.9847L72.6255 40H32.6639L32.6614 12.2628C32.6605 9.57176 32.4201 7.55133 34.5586 5.51656C39.0733 1.221 46.3956 0.123222 52.3648 0.00647864ZM33.565 39.0777H71.7087L71.7108 12.0195C71.7108 11.1286 71.7531 9.76068 71.6278 8.91462C71.4887 7.97514 70.6672 6.7506 69.9787 6.09573C65.7983 2.12118 58.0403 0.906091 52.5313 0.919619C52.3251 0.920548 52.1195 0.925867 51.9139 0.935677C46.3657 1.05898 39.348 2.20442 35.1685 6.19905C33.2931 7.99156 33.562 9.90247 33.5627 12.2682L33.565 39.0777Z" fill="white"/>
<path d="M49.9984 3.811H54.8874V7.37072H58.4376V12.2717H54.8874V35.728H49.9984V12.2717H46.4471V7.37072H49.9984V3.811ZM50.9198 8.29599H47.367V11.3462H50.9198V34.8093H53.966V11.3462H57.5183V8.29599H53.966V4.73544H50.9198V8.29599Z" fill="white"/>
<path d="M91.7901 9.69449H92.7126V34.2051H91.7901V9.69449Z" fill="white"/>
<path d="M12.5733 9.71452H13.4967V34.0676H12.5733V9.71452Z" fill="white"/>
<path d="M60.7726 15.7328H65.0263L69.768 28.4397H65.6885L65.0727 26.3483L60.632 26.3482L60.0141 28.4397H56.0289C56.5654 27.1519 57.1245 25.5167 57.6193 24.1907L60.7726 15.7328ZM61.4766 23.5921H64.2486C64.0884 23.0614 62.9917 19.2745 62.8469 19.0749L61.4766 23.5921Z" fill="white"/>
<path d="M36.7204 15.7328H47.7602V18.2652C45.5551 20.696 42.9588 23.3189 40.6815 25.7076H48.0189V28.3718L47.9726 28.4222C46.9852 28.5026 44.9985 28.4413 43.9524 28.4412L36.0361 28.4397V25.8113L43.0273 18.4515H36.7204V15.7328Z" fill="white"/>
<path d="M38.9409 12.4822H41.0672L42.1108 13.8104L43.1711 12.4822H45.3077L44.8341 13.079C44.3765 13.6881 43.8112 14.3602 43.3293 14.9616H40.8452L38.9409 12.4822Z" fill="white"/>
<path d="M62.7907 12.374H65.7962L63.0314 14.9616H61.3498L62.7907 12.374Z" fill="white"/>
<path d="M75.9995 15.7328H79.8898V20.5484C81.1524 18.9785 82.6655 17.2816 83.9832 15.7328H89.1722L84.5676 20.5268L87.8163 25.872C88.2322 26.6385 88.9062 27.6706 89.3737 28.4397H84.5686L81.911 23.2161L79.8898 25.346V28.4397H75.9995V15.7328Z" fill="white"/>
<path d="M18.2424 15.7328H28.4121V18.4515H22.1541V20.473H28.2214V23.0621H22.1541V25.5616H28.6039V28.4397H18.2424V15.7328Z" fill="white"/>
<path d="M95.2697 15.7328H99.6032L102.151 20.0196L104.698 15.7328H109C107.911 17.4197 106.751 19.1232 105.638 20.7997L104.096 23.1199V28.4397H100.185V23.1196L95.2697 15.7328Z" fill="white"/>
<path d="M0 15.7328H3.90743V25.3153H9.99199V28.4397H0V15.7328Z" fill="white"/>
</svg>
