<svg xmlns="http://www.w3.org/2000/svg" xml:space="preserve" style="fill-rule:evenodd;clip-rule:evenodd;stroke-linejoin:round;stroke-miterlimit:2" viewBox="0 0 253 91" width="253" height="91"><path d="M365.3 309c0 21.6-13.1 34-33 34h-24v-10.4H331q12.1.1 18-7.3h-.2a9 9 0 0 1-3.9-1.7 10 10 0 0 1-4.2-7.4l-.4-5q-.4-3.6-2.3-6.8-.6-.9-1.6-1.7a11 11 0 0 0-5.6-3q-2.2-.6-4.6-.7H320v27.5h-11.8v-50.7q-1.7-1.5-4-2.1c-2.9-1-5.8-1-8.9-1a10 10 0 0 1-6-2q-1.4-1.1-2.5-2.5-.6-.7-1-1.8A10 10 0 0 1 292 253q3.2-1.2 6.4-.1 3.4 1.1 5.4 4 1.8 2.8 1.7 6 0 3.4 1 6.6.8 3.1 3 5.6H332c16.5 0 28.6 8.5 32.1 24h-12c-2.6-8.6-9.2-13-18.9-13.6v4.2q0 4.5 1.7 8.5a10 10 0 0 0 6 5.7c3.1 1.3 6.3 1.4 9.5 1.3h14.6zM530.1 306l-.4-.4v-11.5l-.5-.5h-10.1l-.5.5v11.5l-.4.4H511l-.5-.4v-30.1l.5-.5h7l.5.5v11l.5.5h10.1l.5-.5v-11l.4-.5h7.1l.5.5v30l-.5.5zm-40-12.4h5.8l.4-.4-3-8.4h-.5l-3.1 8.4zm8 6.7h-10.2l-.9.4-1.8 4.9-.4.4h-5.3l-.5-.4v-5.8l9.8-24.3.4-.5h7.6l.4.5 9.8 24.3v5.8l-.5.4h-5.3l-.4-.4-1.8-4.9zm-30.2 5.7-.5-.4v-30.1l.5-.5h7l.5.5v30l-.4.5zM452 281.7h-7.5l-.4.4v5.3l.4.5h7.5c1.8 0 3.1-.5 3.1-3.1 0-2.7-1.3-3.1-3-3.1m5.2 12v.4l5 5.7v5.8l-.5.4h-3.6l-.9-.4-8.8-10.6-.9-.5h-3.1l-.4.5v10.6l-.5.4h-7l-.5-.4v-30.1l.4-.5H452c6.6 0 11.1 3.6 11.1 9.8a9 9 0 0 1-5.8 8.8m-41.5 0h5.7l.5-.4-3.1-8.4h-.5l-3 8.4zm8 6.7h-10.2l-1 .4-1.7 4.9-.4.4h-5.3l-.5-.4v-5.8l9.8-24.3.4-.5h7.5l.5.5 9.7 24.3v5.8l-.4.4h-5.3l-.5-.4-1.8-4.9zm-35.9-18.6h-3.5l-.4.4V299l.4.5h3.5c5 0 7.1-1.7 7.1-8.9 0-7-2.2-8.8-7-8.8m-.5 24.3h-11l-.5-.4v-30.1l.4-.5h11.1c11.1 0 15.5 5.8 15.5 15.5 0 9.8-4.4 15.5-15.5 15.5m43 36 .5-.4v-5.8l-9.3-9.3v-.4l8.8-8.9v-5.7l-.4-.5H427l-.9.5-12 12h-.4v-12l-.4-.5h-7.1l-.5.5v30l.5.5h7l.5-.4V334l2.2-2.3h.5l9.7 9.8.9.4zm-36.8-8.8q-.2 3.1-5.8 3-5.9.1-5.7-4l-.5-.4h-7l-.5.5q.2 10.1 13.7 10.2c9.8 0 13.3-5 13.3-9.8s-1.7-8.9-11-10.2l-3.1-.4c-3.2-.5-5-.9-5-2.7q0-2.6 5.4-2.6c3.6 0 4.9 1.3 4.9 3l.4.5h7.1l.5-.4c0-6.2-5-9.3-12.9-9.3-8.9 0-12.8 4-12.8 8.8 0 4.4 1.7 9 11 10.2l3.1.5c3 .5 5 .9 5 3" style="fill:#005baa;fill-rule:nonzero" transform="translate(-285 -252.3)"/></svg>