<svg xmlns="http://www.w3.org/2000/svg" width="345" height="123" viewBox="0 0 344 123"><path d="M56.5 67v-6.1h4.6a1.4 1.4 0 0 0 0-2.8h-12a1.4 1.4 0 0 0 0 2.8h4.7v6l-5.6 5.6c-.5.6-.5 1.5 0 2a1.4 1.4 0 0 0 2 0l5-5 5 5a1.4 1.4 0 0 0 1.9 0c.5-.5.5-1.4 0-2ZM55.1 54.9c1.9 0 3.4-1.6 3.4-3.4a3.4 3.4 0 1 0-6.7 0c0 1.8 1.5 3.4 3.3 3.4Zm0 0" style="stroke:none;fill-rule:nonzero;fill:#f04e23;fill-opacity:1"/><path d="M72.5 50.9v-6H77a1.4 1.4 0 0 0 0-2.8H65a1.4 1.4 0 0 0 0 2.7h4.6V51l-5.6 5.6c-.5.5-.5 1.4 0 2 .3.2.7.4 1 .4.4 0 .7-.2 1-.4l5-5 5 5c.2.2.6.4 1 .4.3 0 .7-.2 1-.4.5-.6.5-1.5 0-2ZM71 38.8c1.9 0 3.4-1.5 3.4-3.4 0-1.8-1.5-3.3-3.4-3.3a3.4 3.4 0 0 0-3.3 3.3c0 2 1.5 3.4 3.3 3.4ZM88.4 67v-6.1H93a1.4 1.4 0 0 0 0-2.8H81a1.4 1.4 0 0 0 0 2.8h4.6v6l-5.5 5.6c-.6.6-.6 1.5 0 2a1.4 1.4 0 0 0 2 0l5-5 4.9 5a1.4 1.4 0 0 0 2 0c.5-.5.5-1.4 0-2ZM87 54.9c1.8 0 3.3-1.6 3.3-3.4 0-1.9-1.5-3.4-3.3-3.4a3.4 3.4 0 0 0-3.4 3.4c0 1.8 1.5 3.4 3.4 3.4ZM24.7 67v-6.1h4.6a1.4 1.4 0 0 0 0-2.8h-12a1.4 1.4 0 0 0 0 2.8H22v6l-5.5 5.6c-.6.6-.6 1.5 0 2a1.4 1.4 0 0 0 2 0l4.9-5 5 5a1.4 1.4 0 0 0 2 0c.4-.5.4-1.4 0-2ZM23.3 54.9c1.8 0 3.3-1.6 3.3-3.4 0-1.9-1.5-3.4-3.3-3.4a3.4 3.4 0 0 0-3.4 3.4c0 1.8 1.5 3.4 3.4 3.4ZM72.5 83v-6H77a1.4 1.4 0 0 0 0-2.9H65a1.4 1.4 0 0 0 0 2.8h4.6v6l-5.6 5.7c-.5.5-.5 1.4 0 2 .3.2.7.3 1 .3.4 0 .7-.1 1-.4l5-5 5 5c.2.3.6.4 1 .4.3 0 .7-.1 1-.4.5-.5.5-1.4 0-2ZM71 70.9c1.9 0 3.4-1.5 3.4-3.4s-1.5-3.4-3.4-3.4a3.4 3.4 0 0 0-3.3 3.4c0 1.9 1.5 3.4 3.3 3.4ZM96 56.5c-.6.5-.6 1.4 0 2 .2.2.6.4 1 .4.3 0 .6-.2.9-.4l5-5 5 5a1.4 1.4 0 0 0 2 0c.5-.6.5-1.5 0-2l-5.6-5.6v-6h4.6a1.4 1.4 0 0 0 0-2.8h-12a1.4 1.4 0 0 0 0 2.7h4.6V51ZM102.9 38.8c1.8 0 3.3-1.5 3.3-3.4 0-1.8-1.5-3.3-3.3-3.3a3.4 3.4 0 0 0-3.4 3.3c0 2 1.5 3.4 3.4 3.4ZM104.3 83v-6h4.6c.8 0 1.4-.7 1.4-1.5 0-.7-.6-1.4-1.4-1.4h-12a1.4 1.4 0 0 0 0 2.8h4.7v6L96 88.7c-.5.5-.5 1.4 0 2 .3.2.6.3 1 .3.3 0 .7-.1 1-.4l5-5 5 5c.2.3.5.4.9.4s.7-.1 1-.4c.5-.5.5-1.4 0-2ZM102.9 70.9c1.8 0 3.3-1.5 3.3-3.4s-1.5-3.4-3.3-3.4a3.4 3.4 0 0 0-3.4 3.4c0 1.9 1.5 3.4 3.4 3.4ZM8.8 50.9v-6h4.6a1.4 1.4 0 0 0 0-2.8h-12c-.7 0-1.4.6-1.4 1.4 0 .7.7 1.3 1.4 1.3H6V51L.4 56.5c-.5.5-.5 1.4 0 2 .3.2.6.4 1 .4.3 0 .7-.2 1-.4l5-5 5 5c.2.2.6.4 1 .4.3 0 .6-.2.9-.4.5-.6.5-1.5 0-2ZM7.3 38.8c1.9 0 3.4-1.5 3.4-3.4 0-1.8-1.5-3.3-3.4-3.3A3.4 3.4 0 0 0 4 35.4c0 2 1.5 3.4 3.3 3.4ZM8.8 83v-6h4.6c.7 0 1.3-.7 1.3-1.5 0-.7-.6-1.4-1.3-1.4h-12a1.4 1.4 0 0 0 0 2.8H6v6L.4 88.7c-.5.5-.5 1.4 0 2 .3.2.6.3 1 .3.3 0 .7-.1 1-.4l5-5 5 5c.2.3.6.4 1 .4.3 0 .6-.1.9-.4.5-.5.5-1.4 0-2ZM7.3 70.9c1.9 0 3.4-1.5 3.4-3.4s-1.5-3.4-3.4-3.4A3.4 3.4 0 0 0 4 67.5C4 69.4 5.5 71 7.3 71ZM56.5 99v-6h4.6c.8 0 1.4-.7 1.4-1.4 0-.8-.6-1.4-1.4-1.4h-12a1.4 1.4 0 0 0 0 2.7h4.7V99l-5.6 5.6c-.5.5-.5 1.4 0 2 .3.2.6.4 1 .4.3 0 .7-.2 1-.4l5-5 5 5c.2.2.6.4 1 .4.3 0 .6-.2.9-.4.5-.6.5-1.5 0-2ZM55.1 87c1.9 0 3.4-1.6 3.4-3.5 0-1.8-1.5-3.3-3.4-3.3a3.4 3.4 0 0 0-3.3 3.3c0 2 1.5 3.4 3.3 3.4ZM56.5 34.9v-6h4.6a1.4 1.4 0 0 0 0-2.8h-12a1.4 1.4 0 0 0 0 2.8h4.7v6l-5.6 5.6c-.5.6-.5 1.4 0 2a1.4 1.4 0 0 0 2 0l5-5 5 5c.2.2.5.3.9.3.3 0 .7 0 1-.4.5-.5.5-1.4 0-2ZM55.1 22.8c1.9 0 3.4-1.5 3.4-3.4S57 16 55 16a3.4 3.4 0 0 0-3.3 3.4c0 1.9 1.5 3.4 3.3 3.4ZM40.6 50.9v-6h4.6a1.4 1.4 0 0 0 0-2.8h-12c-.7 0-1.3.6-1.3 1.4 0 .7.6 1.3 1.4 1.3h4.6V51l-5.6 5.6c-.5.5-.5 1.4 0 2a1.4 1.4 0 0 0 2 0l4.9-5 5 5a1.4 1.4 0 0 0 2 0c.5-.6.5-1.5 0-2ZM39.2 38.8c1.8 0 3.4-1.5 3.4-3.4a3.4 3.4 0 0 0-6.7 0c0 2 1.4 3.4 3.3 3.4ZM72.5 18.8v-6H77a1.4 1.4 0 0 0 0-2.7H65a1.4 1.4 0 0 0 0 2.7h4.6v6l-5.6 5.7c-.5.5-.5 1.4 0 2 .3.2.7.4 1 .4.4 0 .7-.2 1-.4l5-5.1 5 5c.2.3.6.4 1 .4.3 0 .6-.1.9-.4.5-.5.5-1.4 0-2ZM71 6.8c1.9 0 3.4-1.5 3.4-3.4S72.9 0 71 0a3.4 3.4 0 0 0-3.3 3.4c0 1.9 1.5 3.4 3.3 3.4ZM40.6 18.8v-6h4.6a1.4 1.4 0 0 0 0-2.7h-12c-.7 0-1.3.6-1.3 1.3 0 .8.6 1.4 1.4 1.4h4.6v6l-5.7 5.6c-.5.6-.5 1.5 0 2 .3.3.7.4 1 .4.4 0 .7-.1 1-.4l5-5 5 5c.3.3.6.4 1 .4.3 0 .7-.1 1-.4.5-.5.5-1.4 0-2ZM39.2 6.8c1.8 0 3.4-1.5 3.4-3.4S41 0 39.2 0a3.4 3.4 0 0 0-3.4 3.4c0 1.9 1.5 3.4 3.4 3.4ZM24.7 34.9v-6h4.6a1.4 1.4 0 0 0 0-2.8h-12a1.4 1.4 0 0 0 0 2.8H22v6l-5.6 5.6c-.5.5-.5 1.4 0 2 .3.2.6.3 1 .3.3 0 .7 0 1-.4l5-5 5 5c.2.3.6.4 1 .4.3 0 .6 0 1-.4.4-.5.4-1.4 0-2ZM23.3 22.8c1.8 0 3.3-1.5 3.3-3.4S25.1 16 23.3 16a3.4 3.4 0 0 0-3.4 3.4c0 1.9 1.5 3.4 3.4 3.4ZM24.7 99v-6h4.6a1.4 1.4 0 0 0 0-2.8h-12a1.4 1.4 0 0 0 0 2.7H22V99l-5.5 5.6c-.6.5-.6 1.4 0 2 .2.2.6.4 1 .4.3 0 .6-.2 1-.4l4.9-5 5 5c.2.2.6.4 1 .4.3 0 .6-.2 1-.4.4-.6.4-1.5 0-2ZM23.3 87c1.8 0 3.3-1.6 3.3-3.5 0-1.8-1.5-3.3-3.3-3.3a3.4 3.4 0 0 0-3.4 3.3c0 2 1.5 3.4 3.4 3.4ZM88.4 34.9v-6H93a1.4 1.4 0 0 0 0-2.8H81a1.4 1.4 0 0 0 0 2.8h4.6v6l-5.5 5.6c-.6.6-.6 1.4 0 2a1.4 1.4 0 0 0 2 0l4.9-5 5 5a1.4 1.4 0 0 0 2 0c.4-.6.4-1.5 0-2ZM87 22.8c1.8 0 3.3-1.5 3.3-3.4S88.8 16 87 16a3.4 3.4 0 0 0-3.4 3.4c0 1.9 1.5 3.4 3.4 3.4ZM88.4 99v-6H93c.7 0 1.4-.7 1.4-1.4 0-.8-.7-1.4-1.4-1.4H81c-.7 0-1.3.6-1.3 1.4 0 .7.6 1.3 1.3 1.3h4.6V99l-5.5 5.6c-.6.5-.6 1.4 0 2 .2.2.6.4 1 .4.3 0 .6-.2 1-.4l5-5 4.9 5c.3.2.6.4 1 .4.3 0 .7-.2 1-.4.5-.6.5-1.5 0-2ZM87 87c1.8 0 3.3-1.6 3.3-3.5 0-1.8-1.5-3.3-3.3-3.3a3.4 3.4 0 0 0-3.4 3.3c0 2 1.5 3.4 3.4 3.4ZM72.5 115v-6H77a1.4 1.4 0 0 0 0-2.8H65a1.4 1.4 0 0 0 0 2.8h4.6v6l-5.6 5.6c-.5.6-.5 1.5 0 2 .3.3.7.4 1 .4.4 0 .7-.1 1-.4l5-5 5 5c.2.3.6.4 1 .4.3 0 .7-.1 1-.4.5-.5.5-1.4 0-2ZM74.4 99.6c0-1.9-1.5-3.4-3.4-3.4a3.4 3.4 0 0 0-3.3 3.4c0 1.8 1.5 3.4 3.3 3.4 1.9 0 3.4-1.6 3.4-3.4ZM40.6 115v-6h4.6c.8 0 1.4-.7 1.4-1.4 0-.8-.6-1.4-1.4-1.4h-12c-.7 0-1.3.6-1.3 1.4 0 .7.6 1.4 1.4 1.4h4.6v6l-5.6 5.6c-.5.6-.5 1.5 0 2 .3.3.6.4 1 .4.3 0 .7-.1 1-.4l4.9-5 5 5c.3.3.6.4 1 .4.3 0 .7-.1 1-.4.5-.5.5-1.4 0-2ZM42.6 99.6a3.4 3.4 0 1 0-6.7 0c0 1.8 1.4 3.4 3.3 3.4 1.8 0 3.4-1.6 3.4-3.4ZM40.6 83v-6h4.6c.8 0 1.4-.7 1.4-1.5 0-.7-.6-1.4-1.4-1.4h-12a1.4 1.4 0 0 0 0 2.8H38v6l-5.6 5.7c-.5.5-.5 1.4 0 2 .3.2.6.3 1 .3.3 0 .7-.1 1-.4l4.9-5 5 5c.3.3.6.4 1 .4.3 0 .7-.1 1-.4.5-.5.5-1.4 0-2ZM39.2 70.9c1.8 0 3.4-1.5 3.4-3.4s-1.6-3.4-3.4-3.4a3.4 3.4 0 0 0-3.4 3.4c0 1.9 1.5 3.4 3.4 3.4ZM128.5 42v-6c0-.7.7-1.3 1.4-1.3.8 0 1.4.6 1.4 1.4v5.8c0 2 1 3 2.6 3 1.7 0 2.7-1 2.7-3v-5.8c0-.8.6-1.4 1.4-1.4.7 0 1.3.6 1.3 1.4v5.8c0 3.7-2 5.6-5.4 5.6-3.3 0-5.4-1.9-5.4-5.6Zm4.7-8.6c0-.1 0-.3.2-.4l1-1.6c.2-.3.5-.6 1-.6.6 0 1.5.4 1.5.8 0 .3-.2.5-.4.6l-1.1 1a2 2 0 0 1-1.6.6c-.3.1-.6 0-.6-.4ZM141.6 46.4c-.3-.2-.5-.5-.5-1 0-.6.4-1 1-1h.6c.8.7 1.8 1 2.5 1 .8 0 1.2-.3 1.2-.8 0-.6-1-.8-2-1.1-1.3-.4-2.8-1-2.8-2.9 0-2 1.5-3 3.4-3 1 0 2 .2 3 .7.4.1.6.5.6 1 0 .6-.5 1-1 1a1 1 0 0 1-.6 0c-.7-.4-1.5-.7-2-.7-.7 0-1 .3-1 .7 0 .5 1 .8 2 1.2 1.3.4 2.8 1 2.8 2.8 0 2.2-1.6 3.1-3.6 3.1-1.2 0-2.5-.3-3.6-1ZM151 44.5V40h-.1c-.6 0-1.2-.5-1.2-1.1 0-.6.6-1.2 1.2-1.2v-1.2c0-.7.7-1.3 1.4-1.3s1.3.6 1.3 1.3v1.2h1.2c.6 0 1.2.6 1.2 1.2s-.6 1.1-1.2 1.1h-1.2v4c0 .7.3 1 .9 1h.3c.6 0 1.1.5 1.1 1.1 0 .5-.3 1-.7 1l-1.5.3c-1.6 0-2.7-.6-2.7-2.9ZM157.3 44.5c0-2.1 1.6-3 3.8-3 1 0 1.6.1 2.3.4v-.2c0-1.1-.7-1.8-2-1.8-.8 0-1.4.1-1.9.3l-.4.1c-.6 0-1.1-.5-1.1-1.1 0-.5.3-.9.7-1 .8-.4 1.8-.6 3-.6 1.5 0 2.5.4 3.2 1.1.7.7 1 1.8 1 3v4.4c0 .7-.6 1.3-1.3 1.3-.8 0-1.3-.6-1.3-1.1-.7.7-1.5 1.2-2.9 1.2-1.6 0-3.1-1.1-3.1-3Zm6.2-.6v-.5a4 4 0 0 0-1.7-.3c-1.2 0-1.9.4-1.9 1.3 0 .8.6 1.2 1.5 1.2 1.2 0 2-.7 2-1.7ZM172.2 47.5h-.2c-.7 0-1.2-.5-1.5-1.2l-2.9-6.8-.1-.6c0-.6.5-1.3 1.3-1.3.7 0 1.1.4 1.3 1l2 5.5 2.1-5.5c.2-.5.6-1 1.3-1 .7 0 1.3.6 1.3 1.3l-.2.6-2.9 6.8c-.3.7-.8 1.2-1.5 1.2ZM188.3 47.5c-2.8 0-5-2-5-5 0-2.7 2-5 4.7-5 3.2 0 4.6 2.6 4.6 4.6 0 .8-.5 1.3-1.2 1.3H186c.3 1.2 1.2 1.8 2.3 1.8a3 3 0 0 0 2-.6l.6-.2c.6 0 1 .4 1 1 0 .4-.1.7-.3.9-.9.7-2 1.2-3.3 1.2Zm1.7-5.8c-.2-1.2-.9-2-2-2-1 0-1.8.8-2 2ZM195 44.5V40c-.6 0-1.2-.5-1.2-1.1 0-.6.6-1.2 1.2-1.2v-1.2c0-.7.7-1.3 1.4-1.3s1.3.6 1.3 1.3v1.2h1.2c.6 0 1.2.6 1.2 1.2s-.6 1.1-1.2 1.1h-1.2v4c0 .7.3 1 1 1h.2c.6 0 1.1.5 1.1 1.1 0 .5-.3 1-.7 1l-1.5.3c-1.6 0-2.7-.6-2.7-2.9ZM202 39c0-.8.6-1.4 1.3-1.4.7 0 1.3.7 1.3 1.4.6-.7 1.4-1.5 2.8-1.5 2 0 3.2 1.4 3.2 3.6v5c0 .7-.6 1.3-1.3 1.3-.7 0-1.3-.6-1.3-1.4v-4c0-1.3-.6-2-1.7-2-1 0-1.6.7-1.6 2v4c0 .8-.7 1.4-1.4 1.4s-1.3-.6-1.3-1.4v-7ZM212.5 42.5a5 5 0 0 1 5.2-5 5 5 0 0 1 5.1 5 5 5 0 0 1-5.1 5 5 5 0 0 1-5.2-5Zm7.6 0c0-1.4-1-2.6-2.4-2.6-1.6 0-2.5 1.2-2.5 2.5 0 1.5 1 2.7 2.5 2.7s2.4-1.1 2.4-2.6ZM224.9 35.5c0-.8.6-1.3 1.3-1.3.8 0 1.3.6 1.3 1.3V46c0 .8-.6 1.3-1.3 1.3-.7 0-1.3-.6-1.3-1.3ZM229.6 42.5a5 5 0 0 1 5.1-5 5 5 0 0 1 5.2 5 5 5 0 0 1-5.2 5 5 5 0 0 1-5-5Zm7.6 0c0-1.4-1-2.6-2.5-2.6s-2.4 1.2-2.4 2.5c0 1.5 1 2.7 2.4 2.7 1.6 0 2.5-1.1 2.5-2.6Zm-3.2-6.2.2-.5 1-1.5c.2-.4.6-.6 1-.6.7 0 1.5.4 1.5.8l-.3.6-1.2 1a2 2 0 0 1-1.5.6c-.4 0-.7 0-.7-.4ZM242.6 49.5c-.4-.2-.7-.6-.7-1 0-.7.5-1.2 1-1.2h.5c.8.4 1.6.7 2.6.7 1.9 0 2.7-1 2.7-2.6v-.5c-.8 1-1.7 1.6-3 1.6-2.3 0-4.3-1.6-4.3-4.5s2-4.5 4.2-4.5c1.5 0 2.4.7 3 1.5 0-.7.7-1.4 1.4-1.4.8 0 1.3.7 1.3 1.4V45c0 1.7-.4 3-1.2 3.8-.8.8-2.2 1.2-4 1.2a9 9 0 0 1-3.5-.6Zm6.1-7.5c0-1.3-1-2.2-2.3-2.2-1.3 0-2.3.9-2.3 2.2 0 1.4 1 2.3 2.3 2.3 1.3 0 2.3-1 2.3-2.3ZM253.8 35.4c0-.8.6-1.2 1.5-1.2.8 0 1.5.5 1.5 1.2 0 .9-.7 1.4-1.5 1.4-1 0-1.5-.5-1.5-1.4Zm.1 3.6c0-.8.6-1.4 1.3-1.4.8 0 1.4.7 1.4 1.4v7c0 .8-.7 1.3-1.4 1.3s-1.3-.6-1.3-1.3ZM263.6 47.5c-2.8 0-5-2-5-5 0-2.7 2-5 4.8-5 3.1 0 4.5 2.6 4.5 4.6 0 .8-.5 1.3-1.2 1.3h-5.3c.2 1.2 1 1.8 2.3 1.8a3 3 0 0 0 1.9-.6l.6-.2c.7 0 1.1.4 1.1 1 0 .4-.2.7-.4.9-.8.7-1.9 1.2-3.3 1.2Zm1.8-5.8c-.2-1.2-1-2-2-2-1.1 0-1.9.8-2 2ZM128.7 66c0-2.2 1.6-3.2 3.8-3.2 1 0 1.6.2 2.3.4v-.1c0-1.2-.7-1.8-2-1.8-.8 0-1.4.1-2 .3h-.3c-.6 0-1.1-.4-1.1-1 0-.5.3-1 .7-1.1.8-.3 1.8-.5 3-.5 1.5 0 2.5.4 3.2 1 .7.8 1 1.9 1 3.1v4.4c0 .7-.6 1.3-1.3 1.3-.8 0-1.3-.6-1.3-1.2-.7.8-1.6 1.2-2.9 1.2-1.7 0-3.1-1-3.1-2.9Zm6.1-.7v-.5a4 4 0 0 0-1.7-.4c-1.2 0-1.9.5-1.9 1.4 0 .7.7 1.2 1.5 1.2 1.3 0 2.1-.7 2.1-1.7ZM144.8 67.7c-.3-.1-.6-.5-.6-.9 0-.6.5-1 1.1-1h.5c1 .6 1.9 1 2.6 1 .8 0 1.2-.4 1.2-.8 0-.6-1-.8-2-1.2-1.3-.4-2.8-1-2.8-2.8 0-2 1.5-3 3.4-3 1 0 2 .2 3 .6.3.2.6.6.6 1 0 .7-.5 1.1-1.1 1.1a1 1 0 0 1-.5-.1c-.7-.4-1.5-.6-2-.6-.7 0-1 .2-1 .6 0 .6.9.9 2 1.2 1.3.5 2.8 1.1 2.8 2.9 0 2.2-1.6 3.1-3.6 3.1-1.2 0-2.5-.3-3.6-1ZM153.4 64a5 5 0 0 1 5.2-5 5 5 0 0 1 5.1 4.9 5 5 0 0 1-5.1 5 5 5 0 0 1-5.2-5Zm7.7 0c0-1.5-1-2.8-2.5-2.8-1.6 0-2.5 1.2-2.5 2.6 0 1.5 1 2.7 2.5 2.7s2.5-1.2 2.5-2.6ZM165.2 64c0-2.9 2-5 5-5 1.3 0 2.4.3 3.1 1 .2.1.5.4.5 1s-.5 1.1-1.2 1.1l-.8-.2c-.5-.4-1-.7-1.7-.7-1.4 0-2.3 1.2-2.3 2.6 0 1.5.9 2.7 2.4 2.7.7 0 1.2-.3 1.7-.7l.7-.2c.7 0 1.2.5 1.2 1.1 0 .4-.2.6-.4.9-.8.7-1.8 1.2-3.4 1.2a4.8 4.8 0 0 1-4.8-4.9ZM175.7 56.8c0-.8.7-1.2 1.5-1.2s1.5.5 1.5 1.2c0 .9-.7 1.4-1.5 1.4s-1.5-.6-1.5-1.4Zm.2 3.5c0-.7.6-1.3 1.3-1.3.7 0 1.3.6 1.3 1.3v7c0 .8-.6 1.4-1.3 1.4-.8 0-1.3-.6-1.3-1.3ZM180.5 66c0-2.2 1.6-3.2 3.8-3.2 1 0 1.7.2 2.3.4v-.1c0-1.2-.7-1.8-2-1.8-.8 0-1.3.1-1.9.3h-.4c-.6 0-1-.4-1-1 0-.5.2-1 .6-1.1.9-.3 1.8-.5 3-.5 1.5 0 2.6.4 3.2 1 .7.8 1 1.9 1 3.1v4.4c0 .7-.5 1.3-1.3 1.3s-1.3-.6-1.3-1.2c-.6.8-1.5 1.2-2.8 1.2-1.7 0-3.2-1-3.2-2.9Zm6.2-.7v-.5a4 4 0 0 0-1.7-.4c-1.2 0-1.9.5-1.9 1.4 0 .7.6 1.2 1.5 1.2 1.2 0 2.1-.7 2.1-1.7Zm-2.3-7.6.2-.5 1-1.5c.2-.4.5-.7 1-.7.6 0 1.5.4 1.5.8 0 .3-.2.5-.4.7l-1 1a2 2 0 0 1-1.6.6c-.4 0-.7-.1-.7-.4ZM191.7 56.9c0-.8.6-1.4 1.3-1.4.7 0 1.3.7 1.3 1.4v10.5c0 .7-.6 1.3-1.3 1.3-.8 0-1.3-.6-1.3-1.3ZM196.9 60.3c0-.7.6-1.3 1.3-1.3.8 0 1.3.6 1.3 1.3v.1c.7-.8 1.4-1.5 2.8-1.5 2 0 3.3 1.4 3.3 3.6v5c0 .7-.7 1.3-1.4 1.3s-1.3-.7-1.3-1.4v-4c0-1.4-.6-2-1.6-2s-1.7.6-1.7 2v4c0 .8-.6 1.4-1.3 1.4-.8 0-1.4-.7-1.4-1.4v-7ZM212.4 68.8c-2.8 0-5-2-5-4.9 0-2.8 2-5 4.7-5 3.2 0 4.6 2.6 4.6 4.6 0 .8-.5 1.3-1.2 1.3h-5.3c.2 1.2 1 1.8 2.2 1.8a3 3 0 0 0 2-.6l.6-.2c.6 0 1 .4 1 1 0 .4-.1.7-.3.8-.8.8-2 1.2-3.3 1.2Zm1.7-5.7c-.1-1.2-.9-2-2-2-1 0-1.8.8-2 2ZM218.7 71.5c-.9 0-1.5-.3-1.5-1 0-.8.5-1.2 1-1.2.4 0 .7-.2.7-.9v-8c0-.8.6-1.4 1.3-1.4.7 0 1.4.6 1.4 1.3v8.2c0 2-1.1 3-3 3Zm0-14.7c0-.8.7-1.2 1.5-1.2.9 0 1.5.5 1.5 1.2 0 .9-.6 1.4-1.5 1.4-.8 0-1.5-.6-1.5-1.4ZM228.9 66c0-2.2 1.6-3.2 3.8-3.2 1 0 1.6.2 2.3.4v-.1c0-1.2-.7-1.8-2-1.8-.8 0-1.4.1-2 .3h-.3c-.6 0-1.1-.4-1.1-1 0-.5.3-1 .7-1.1.8-.3 1.7-.5 3-.5 1.4 0 2.5.4 3.2 1 .7.8 1 1.9 1 3.1v4.4c0 .7-.6 1.3-1.3 1.3-.8 0-1.3-.6-1.3-1.2-.7.8-1.6 1.2-2.9 1.2-1.7 0-3.1-1-3.1-2.9Zm6.1-.7v-.5a4 4 0 0 0-1.7-.4c-1.2 0-1.9.5-1.9 1.4 0 .7.6 1.2 1.5 1.2 1.3 0 2.1-.7 2.1-1.7ZM239.9 60.3c0-.7.6-1.3 1.3-1.3.8 0 1.3.6 1.3 1.3v.1c.6-.8 1.4-1.5 2.8-1.5 2 0 3.2 1.4 3.2 3.6v5c0 .7-.6 1.3-1.3 1.3-.7 0-1.3-.7-1.3-1.4v-4c0-1.4-.6-2-1.6-2s-1.7.6-1.7 2v4c0 .8-.6 1.4-1.4 1.4-.7 0-1.3-.7-1.3-1.4v-7ZM251.4 66v-4.6h-.1c-.6 0-1.2-.6-1.2-1.2s.6-1.1 1.2-1.1v-1.2c0-.8.7-1.3 1.4-1.3s1.3.6 1.3 1.3V59h1.2c.6 0 1.2.5 1.2 1.2 0 .6-.6 1.1-1.2 1.1H254v4.1c0 .6.3 1 1 1h.2c.6 0 1.1.4 1.1 1 0 .5-.3 1-.7 1-.5.3-1 .3-1.5.3-1.6 0-2.7-.7-2.7-2.9ZM258.3 60.3c0-.7.6-1.3 1.3-1.3.8 0 1.3.6 1.3 1.3v.5c.4-1 1-1.8 1.8-1.8.9 0 1.4.5 1.4 1.3s-.5 1.2-1 1.3c-1.4.3-2.2 1.4-2.2 3.3v2.5c0 .8-.6 1.4-1.3 1.4-.7 0-1.3-.7-1.3-1.4ZM265 64a5 5 0 0 1 5-5 5 5 0 0 1 5.2 4.9 5 5 0 0 1-5.2 5 5 5 0 0 1-5-5Zm7.5 0c0-1.5-1-2.8-2.5-2.8s-2.4 1.2-2.4 2.6c0 1.5 1 2.7 2.4 2.7 1.6 0 2.5-1.2 2.5-2.6ZM277.1 60.3c0-.7.6-1.3 1.3-1.3.8 0 1.4.6 1.4 1.3v.2c.6-1 1.5-1.6 3-1.6 2.1 0 4.3 1.8 4.3 5s-2.1 5-4.4 5c-1.4 0-2.3-.7-3-1.5v2.9c0 .7-.5 1.3-1.3 1.3-.7 0-1.3-.6-1.3-1.3Zm7.3 3.6c0-1.6-1-2.7-2.3-2.7-1.2 0-2.3 1-2.3 2.6 0 1.7 1 2.7 2.3 2.7 1.3 0 2.3-1 2.3-2.6ZM288.6 64a5 5 0 0 1 5.1-5 5 5 0 0 1 5.2 4.9 5 5 0 0 1-5.1 5 5 5 0 0 1-5.2-5Zm7.6 0c0-1.5-1-2.8-2.4-2.8-1.6 0-2.5 1.2-2.5 2.6 0 1.5 1 2.7 2.4 2.7 1.6 0 2.5-1.2 2.5-2.6ZM301 56.9c0-.8.6-1.4 1.3-1.4.7 0 1.3.7 1.3 1.4v10.5c0 .7-.6 1.3-1.3 1.3-.8 0-1.3-.6-1.3-1.3ZM305.7 64a5 5 0 0 1 5.1-5 5 5 0 0 1 5.2 4.9 5 5 0 0 1-5.2 5 5 5 0 0 1-5.1-5Zm7.6 0c0-1.5-1-2.8-2.5-2.8s-2.5 1.2-2.5 2.6c0 1.5 1 2.7 2.5 2.7 1.6 0 2.5-1.2 2.5-2.6Zm-3.2-6.3.2-.5 1-1.5c.2-.4.5-.7 1-.7.6 0 1.5.4 1.5.8 0 .3-.1.5-.4.7l-1 1a2 2 0 0 1-1.6.6c-.4 0-.7-.1-.7-.4ZM318.7 70.9c-.4-.2-.8-.6-.8-1.1 0-.6.5-1.1 1.2-1.1h.4c.8.4 1.6.6 2.6.6 1.9 0 2.7-.9 2.7-2.5v-.5c-.8 1-1.7 1.6-3 1.6-2.3 0-4.3-1.6-4.3-4.5s2-4.5 4.2-4.5c1.5 0 2.4.6 3 1.4 0-.7.7-1.3 1.4-1.3s1.3.6 1.3 1.3v6.2c0 1.7-.4 3-1.2 3.7-.9 1-2.2 1.3-4 1.3a9 9 0 0 1-3.5-.6Zm6.1-7.5c0-1.3-1-2.2-2.3-2.2-1.3 0-2.3.9-2.3 2.2 0 1.4 1 2.3 2.3 2.3 1.3-.1 2.3-1 2.3-2.3ZM329.8 56.8c0-.8.7-1.2 1.5-1.2.9 0 1.6.5 1.6 1.2 0 .9-.7 1.4-1.6 1.4-.8 0-1.5-.6-1.5-1.4Zm.2 3.5c0-.7.6-1.3 1.3-1.3.7 0 1.3.6 1.3 1.3v7c0 .8-.6 1.4-1.3 1.4-.7 0-1.3-.6-1.3-1.3ZM339.7 68.8c-2.8 0-5-2-5-4.9 0-2.8 2-5 4.7-5 3.2 0 4.6 2.6 4.6 4.6 0 .8-.5 1.3-1.2 1.3h-5.3c.2 1.2 1 1.8 2.3 1.8a3 3 0 0 0 1.9-.6l.6-.2c.6 0 1 .4 1 1 0 .4 0 .7-.3.8-.9.8-2 1.2-3.3 1.2Zm1.7-5.7c-.1-1.2-.8-2-2-2-1 0-1.8.8-2 2ZM129.2 89a1 1 0 0 1-.3-.7c0-.6.4-1 1-1l.5.2c.7.5 1.5.9 2.4.9.8 0 1.3-.4 1.3-1 0-.5-.3-.8-1.8-1.2-1.9-.5-3.1-1-3.1-2.8 0-1.8 1.3-2.9 3.2-2.9 1.1 0 2.1.3 3 .9.2.1.4.4.4.8 0 .5-.4.9-1 .9a1 1 0 0 1-.5-.1c-.7-.4-1.3-.7-2-.7-.8 0-1.2.4-1.2.8 0 .7.4.9 2 1.3 2 .5 3 1.2 3 2.8 0 2-1.4 3-3.4 3-1.2 0-2.4-.4-3.5-1.2ZM137.8 81.2c0-.6.4-1 1-1s1 .4 1 1V89c0 .5-.4 1-1 1a1 1 0 0 1-1-1ZM141.4 86.5c0-2.1 1.6-3.8 3.8-3.8 2.2 0 3.9 1.7 3.9 3.7 0 2.1-1.7 3.8-3.9 3.8a3.8 3.8 0 0 1-3.8-3.7Zm5.7 0c0-1-.8-2-1.9-2-1.1 0-1.8.9-1.8 2 0 1 .7 2 1.8 2 1.2-.1 1.9-1 1.9-2ZM153.4 90.1h-.1c-.6 0-1-.3-1.2-.9l-2.2-5v-.5c0-.5.4-1 1-1 .5 0 .8.4 1 .8l1.4 4.1 1.6-4.2c0-.3.4-.7.9-.7s1 .4 1 1l-.1.5-2.2 5c-.3.6-.6 1-1.1 1ZM161.2 90.2a3.6 3.6 0 0 1-3.7-3.7c0-2.1 1.5-3.8 3.5-3.8 2.4 0 3.4 2 3.4 3.4 0 .6-.4 1-1 1h-3.9c.2 1 .8 1.4 1.7 1.4.6 0 1-.1 1.4-.5l.5-.1c.5 0 .8.3.8.8l-.2.5c-.7.6-1.5 1-2.5 1Zm1.3-4.3c-.1-1-.7-1.6-1.5-1.6s-1.4.7-1.5 1.6ZM166 83.8c0-.6.4-1 1-1s1 .4 1 1c.5-.6 1-1.1 2-1.1 1.6 0 2.5 1 2.5 2.7V89c0 .5-.4 1-1 1a1 1 0 0 1-1-1V86c0-1-.5-1.5-1.3-1.5-.7 0-1.2.5-1.2 1.5v3c0 .6-.5 1-1 1a1 1 0 0 1-1-1v-5.2ZM174 89.3a.8.8 0 0 1-.3-.7c0-.4.3-.8.8-.8l.4.1c.6.5 1.3.6 1.9.6.6 0 .8-.2.8-.5 0-.5-.7-.6-1.4-.9-1-.3-2.1-.8-2.1-2.1 0-1.5 1.1-2.3 2.6-2.3.7 0 1.5.2 2.2.5.3.1.5.4.5.7 0 .5-.4.8-.8.8h-.4a4 4 0 0 0-1.5-.5c-.5 0-.8.2-.8.5 0 .4.7.6 1.5.9 1 .3 2.1.8 2.1 2.1 0 1.7-1.2 2.4-2.7 2.4-1 0-1.9-.2-2.7-.8ZM181 81.2c0-.6.4-1 1-1 .5 0 1 .4 1 1v4.4l2.5-2.4c.3-.2.5-.4.9-.4.5 0 .8.4.8.9 0 .3-.1.6-.4.9l-1.6 1.3 2 2.6.2.7c0 .5-.5 1-1 1-.4 0-.6-.2-.8-.5l-1.8-2.5-.8.8V89c0 .6-.4 1-1 1a1 1 0 0 1-1-1v-8ZM192 90.2a3.6 3.6 0 0 1-3.7-3.7c0-2.1 1.4-3.8 3.4-3.8 2.4 0 3.5 2 3.5 3.4 0 .6-.4 1-1 1h-4c.3 1 .9 1.4 1.8 1.4.5 0 1-.1 1.4-.5l.5-.1a.8.8 0 0 1 .5 1.3c-.6.6-1.4 1-2.4 1Zm1.3-4.3c-.2-1-.7-1.6-1.6-1.6-.8 0-1.3.7-1.5 1.6ZM196.7 92.2c-.7 0-1.2-.3-1.2-.9 0-.5.4-.8.8-.8.3 0 .5-.1.5-.6v-6.1c0-.6.4-1 1-1s1 .4 1 1v6c0 1.7-.8 2.4-2.1 2.4Zm0-11c0-.6.5-1 1.1-1 .6 0 1.1.4 1.1 1s-.5 1-1 1c-.7 0-1.2-.4-1.2-1ZM204.3 88c0-1.7 1.2-2.4 2.8-2.4.7 0 1.3.2 1.8.3 0-1-.6-1.4-1.6-1.4l-1.4.2h-.3a.8.8 0 0 1-.8-.8c0-.4.2-.7.5-.8.6-.2 1.4-.4 2.3-.4 1 0 1.9.4 2.4.8.5.6.7 1.4.7 2.3v3.3c0 .5-.4 1-1 1-.5 0-1-.5-1-.9-.4.5-1 .9-2 .9-1.3 0-2.4-.7-2.4-2.1Zm4.6-.5V87c-.3-.2-.8-.3-1.3-.3-.8 0-1.3.4-1.3 1s.4 1 1 1c1 0 1.6-.6 1.6-1.3ZM212.5 81.2c0-.6.5-1 1-1 .6 0 1 .4 1 1v4.4l2.6-2.4c.3-.2.5-.4.9-.4.5 0 .9.4.9.9 0 .3-.2.6-.5.9l-1.6 1.3 1.9 2.6.3.7c0 .5-.5 1-1 1-.4 0-.6-.2-.9-.5l-1.7-2.5-.8.8V89c0 .6-.5 1-1 1a1 1 0 0 1-1-1ZM219.8 88c0-1.7 1.2-2.4 2.9-2.4.7 0 1.2.2 1.7.3 0-1-.5-1.4-1.5-1.4l-1.4.2h-.3a.8.8 0 0 1-.9-.8c0-.4.2-.7.6-.8.6-.2 1.3-.4 2.2-.4 1.1 0 2 .4 2.4.8.5.6.8 1.4.8 2.3v3.3c0 .5-.5 1-1 1-.6 0-1-.5-1-.9-.5.5-1.1.9-2.2.9-1.2 0-2.3-.7-2.3-2.1Zm4.6-.5V87a3 3 0 0 0-1.2-.3c-.9 0-1.5.4-1.5 1s.5 1 1.1 1c1 0 1.6-.6 1.6-1.3ZM235.2 89c0 .6-.4 1-1 1a1 1 0 0 1-1-1c-.5.6-1.2 1.1-2.2 1.1-1.7 0-3.2-1.3-3.2-3.7 0-2.4 1.5-3.7 3.2-3.7 1 0 1.7.5 2.2 1v-2.5c0-.6.4-1 1-1s1 .4 1 1Zm-5.4-2.6c0 1.2.8 2 1.7 2 1 0 1.7-.8 1.7-2s-.8-2-1.7-2c-1 0-1.7.8-1.7 2ZM240.4 90.2a3.6 3.6 0 0 1-3.7-3.7c0-2.1 1.5-3.8 3.5-3.8 2.4 0 3.4 2 3.4 3.4 0 .6-.4 1-.9 1h-4c.2 1 .9 1.4 1.7 1.4.6 0 1-.1 1.5-.5l.5-.1c.4 0 .7.3.7.8 0 .2 0 .4-.2.5-.6.6-1.5 1-2.5 1Zm1.3-4.3c-.1-1-.7-1.6-1.5-1.6-.9 0-1.4.7-1.6 1.6Zm-2-4v-.5l.8-1.1c.2-.3.4-.5.7-.5.5 0 1.2.4 1.2.7l-.3.5-.9.7c-.3.4-.7.5-1.1.5-.3 0-.5-.2-.5-.4ZM245.2 83.8c0-.6.4-1 1-1s1 .4 1 1c.5-.6 1-1.1 2.1-1.1 1 0 1.6.4 2 1.1a3 3 0 0 1 2.3-1.1c1.5 0 2.4.9 2.4 2.6v3.8c0 .5-.4 1-1 1a1 1 0 0 1-1-1V86c0-1-.5-1.5-1.2-1.5-.8 0-1.2.5-1.2 1.5v3c0 .6-.5 1-1 1a1 1 0 0 1-1-1v-3c0-1-.5-1.5-1.3-1.5-.7 0-1.2.5-1.2 1.5v3c0 .6-.5 1-1 1a1 1 0 0 1-1-1v-5.2ZM257.7 81.1c0-.5.5-.9 1.2-.9.6 0 1 .4 1 1s-.4 1-1 1c-.7 0-1.2-.4-1.2-1Zm.2 2.7c0-.6.4-1 1-1s1 .4 1 1V89c0 .5-.4 1-1 1a1 1 0 0 1-1-1ZM265.2 90.2a3.6 3.6 0 0 1-3.7-3.7c0-2.1 1.4-3.8 3.5-3.8 2.4 0 3.4 2 3.4 3.4 0 .6-.4 1-1 1h-3.9c.2 1 .8 1.4 1.7 1.4.6 0 1-.1 1.4-.5l.5-.1c.5 0 .8.3.8.8l-.2.5c-.7.6-1.5 1-2.5 1Zm1.3-4.3c-.2-1-.7-1.6-1.5-1.6-.9 0-1.4.7-1.6 1.6ZM276.3 90.1h-.1c-.5 0-1-.3-1.2-.9l-2.1-5-.1-.5c0-.5.4-1 1-1 .5 0 .8.4 1 .8l1.5 4.1 1.5-4.2c.2-.3.4-.7 1-.7.5 0 1 .4 1 1l-.2.5-2.1 5c-.3.6-.6 1-1.2 1ZM281 81.1c0-.5.5-.9 1.1-.9.6 0 1.1.4 1.1 1s-.5 1-1 1c-.7 0-1.2-.4-1.2-1Zm.1 2.7c0-.6.5-1 1-1 .6 0 1 .4 1 1V89c0 .5-.4 1-1 1a1 1 0 0 1-1-1ZM288.4 90.2a3.6 3.6 0 0 1-3.7-3.7c0-2.1 1.4-3.8 3.5-3.8 2.4 0 3.4 2 3.4 3.4 0 .6-.4 1-1 1h-4c.3 1 1 1.4 1.8 1.4.6 0 1-.1 1.4-.5l.5-.1a.8.8 0 0 1 .5 1.4c-.5.5-1.3.9-2.4.9Zm1.3-4.3c-.1-1-.6-1.6-1.5-1.6-.8 0-1.3.7-1.5 1.6ZM300.3 89c0 .6-.4 1-1 1a1 1 0 0 1-1-1c-.5.6-1.1 1.1-2.2 1.1-1.7 0-3.2-1.3-3.2-3.7 0-2.4 1.5-3.7 3.2-3.7 1 0 1.7.5 2.2 1v-2.5c0-.6.4-1 1-1s1 .4 1 1Zm-5.4-2.6c0 1.2.8 2 1.7 2 1 0 1.8-.8 1.8-2s-.8-2-1.8-2c-.9 0-1.7.8-1.7 2ZM301.9 91.3c.7-.2 1-.6 1-1.3-.5 0-1-.5-1-1v-.1a1 1 0 0 1 1.2-1.1c.7 0 1.2.6 1.2 1.5a3 3 0 0 1-.8 2.2c-.4.4-1 .6-1.5.6-.4 0-.5-.2-.5-.4s.2-.4.4-.4ZM313 90.2h-.1c-.6 0-1-.4-1.2-1l-2.2-5v-.5c0-.5.4-1 1-1 .5 0 .8.4.9.8l1.5 4.1 1.6-4.1c.1-.4.4-.8 1-.8.5 0 .9.4.9 1v.5l-2.3 5c-.2.6-.6 1-1.2 1ZM317.6 87.8c.7 0 1.1.5 1.1 1.1 0 .7-.4 1.2-1.1 1.2-.7 0-1.2-.5-1.2-1.1 0-.7.5-1.2 1.2-1.2ZM326.4 90.2c-.6 0-1-.4-1.2-1l-2.2-5v-.5c0-.5.4-1 1-1 .4 0 .8.4.9.8l1.5 4.1 1.6-4.1c.1-.4.4-.8 1-.8.4 0 .9.4.9 1l-.1.5-2.2 5c-.3.6-.6 1-1.2 1ZM331 87.8c.7 0 1.2.5 1.2 1.1 0 .7-.5 1.2-1.2 1.2a1.1 1.1 0 1 1 0-2.3ZM336.8 81.1c0-.5.5-.9 1.1-.9.7 0 1.1.4 1.1 1s-.4 1-1 1c-.7 0-1.2-.4-1.2-1Zm.1 2.7c0-.6.5-1 1-1 .6 0 1 .4 1 1v5.3c0 .5-.4 1-1 1a1 1 0 0 1-1-1ZM341.8 87.8c.7 0 1.2.5 1.2 1.1 0 .7-.5 1.2-1.2 1.2a1.1 1.1 0 1 1 0-2.3Zm0 0" style="stroke:none;fill-rule:nonzero;fill:#1d1d1d;fill-opacity:1"/></svg>