<svg width="101" height="36" viewBox="0 0 101 36" fill="none" xmlns="http://www.w3.org/2000/svg">
<path d="M85.4267 12.7487C84.4882 12.7487 83.7761 12.0367 83.7761 11.0819C83.7761 10.1595 84.472 9.46368 85.4267 9.46368C86.3653 9.46368 87.0612 10.1595 87.0612 11.0819C87.0612 12.0367 86.3653 12.7487 85.4267 12.7487ZM82.8214 27.5073L83.0155 27.0218C83.7438 26.957 84.2131 26.6334 84.2131 25.5653V18.0404C84.2131 16.9886 83.9056 16.584 83.0155 16.4222L82.789 15.9367C84.6662 15.9367 85.7504 15.5321 86.2197 14.6421H86.7375V25.5653C86.7375 26.6334 87.2068 26.957 87.935 27.0218L88.1292 27.5073H82.8214Z" fill="#0E0E0E"/>
<path d="M80.416 14.6421C81.7591 14.6421 82.6492 15.4674 82.6492 16.8591C82.6492 18.0404 81.8239 19.1085 80.6587 19.1085C80.1409 19.1085 79.5907 18.9305 79.3641 18.6554C80.0114 18.4774 80.5454 17.9433 80.5454 17.0371C80.5454 16.406 80.2703 15.9852 79.7687 15.9852C78.7006 15.9852 77.4222 18.1537 77.4222 20.3707V25.5653C77.4222 26.6334 78.0695 26.957 79.0728 27.0218L79.267 27.5072H73.506L73.7002 27.0218C74.4284 26.957 74.8977 26.6334 74.8977 25.5653V18.0404C74.8977 16.9886 74.5902 16.584 73.7002 16.4222L73.4736 15.9367C75.3508 15.9367 76.4351 15.5321 76.9044 14.6421H77.4222V17.474C78.021 15.8234 79.1699 14.6421 80.416 14.6421Z" fill="#0E0E0E"/>
<path d="M68.2854 27.75C65.3564 27.75 63.4145 25.1284 63.4145 21.196C63.4145 17.2637 65.3726 14.6421 68.2854 14.6421C71.2145 14.6421 73.1726 17.2637 73.1726 21.196C73.1726 25.1122 71.2145 27.75 68.2854 27.75ZM68.5443 26.9894C69.7904 26.9894 70.5024 25.4035 70.5024 22.5068C70.5024 17.9757 69.5477 15.3865 68.0265 15.3865C66.7966 15.3865 66.1008 16.9562 66.1008 19.8367C66.1008 24.2545 67.0879 26.9894 68.5443 26.9894Z" fill="#0E0E0E"/>
<path d="M57.4944 27.5073L57.6886 27.0218C58.4168 26.9571 58.8861 26.6334 58.8861 25.5654V15.6778H57.64L57.4782 15.1114C58.5948 15.0305 58.8861 14.5936 58.8861 12.3766C58.8861 9.62552 60.2778 8.25 62.2197 8.25C63.7085 8.25 65.4077 9.31805 65.4077 10.9201C65.4077 11.9396 64.6309 12.8135 63.5629 12.8135C63.0288 12.8135 62.4948 12.6031 62.2197 12.2795C62.9479 12.1824 63.3687 11.5998 63.3687 10.6774C63.3687 10.0301 62.8832 9.04295 61.8637 9.04295C61.0707 9.04295 60.5044 9.62552 60.5044 10.8392C60.5044 12.3766 61.4106 12.9268 61.4106 14.8849H63.7571V15.6778H62.4948C61.8151 15.6778 61.4106 16.0824 61.4106 16.7944V25.5654C61.4106 26.6334 62.0579 26.9571 63.0612 27.0218L63.2554 27.5073H57.4944Z" fill="#0E0E0E"/>
<path d="M57.3228 27.0218L57.517 27.5072H53.6655C53.6008 26.7143 53.6008 26.0184 53.6008 25.1446V24.7724C52.9373 26.7467 51.4809 27.75 50.2186 27.75C48.6327 27.75 47.419 26.7143 47.419 24.8371C47.419 22.8628 48.9402 21.7462 50.4452 20.662C51.9016 19.5778 53.3257 18.445 53.3257 16.584C53.3257 15.9205 52.8887 15.4189 52.1605 15.4189C51.0601 15.4189 50.3804 16.1633 50.3804 17.1828C50.3804 17.7815 50.6879 18.4126 51.4485 18.6068C51.1248 19.0761 50.5746 19.4969 49.9112 19.4969C48.9564 19.4969 48.2443 18.8981 48.2443 17.8624C48.2443 16.05 50.2672 14.6421 52.1444 14.6421C54.4423 14.6421 56.1253 15.6616 56.1253 18.6392V25.5653C56.1253 26.6334 56.5946 26.957 57.3228 27.0218ZM51.2219 26.2288C52.3709 26.2288 53.6008 24.4164 53.6008 21.6815V18.1699C53.18 19.335 52.468 20.2413 51.756 21.0342C50.8012 22.1023 49.9921 23.057 49.9921 24.4649C49.9921 25.6624 50.4775 26.2288 51.2219 26.2288Z" fill="#0E0E0E"/>
<path d="M44.0576 27.75C42.3908 27.75 41.4522 26.7305 41.4522 24.7401V15.6778H40.368L40.2062 15.1114C41.7597 15.1114 43.2647 12.9915 43.378 10.0301H44.0091V14.8849H46.5174V15.6778H45.2066C44.3975 15.6778 44.0091 16.0662 44.0091 16.8591V24.1737C44.0091 25.533 44.3489 26.1803 45.0771 26.1803C45.8215 26.1803 47.326 25.9793 47.4879 24.0698H47.9895C47.9895 26.1803 45.9833 27.75 44.0576 27.75Z" fill="#0E0E0E"/>
<path d="M39.4893 22.8628H40.0233C39.5863 25.9375 38.1623 27.75 35.832 27.75C33.3561 27.75 31.4465 25.3226 31.4465 21.374C31.4465 17.4579 33.2428 14.6421 36.4307 14.6421C38.5992 14.6421 39.9909 16.2927 39.9909 18.8496C39.9909 19.3836 39.7644 19.513 39.3112 19.6911L34.9743 21.4064C34.3108 21.6815 34.149 22.0699 34.2623 23.0247C34.6345 25.1769 35.5731 26.2126 36.9 26.2126C38.1461 26.2126 39.1656 24.9342 39.4893 22.8628ZM36.2851 15.3703C34.7478 15.3703 34.0843 17.1989 34.0843 20.6135V21.0342C37.1104 19.6425 37.5473 19.1894 37.5473 17.7006C37.5473 16.3736 37.1428 15.3703 36.2851 15.3703Z" fill="#0E0E0E"/>
<path d="M31.5971 27.0218L31.7913 27.5073H25.1888L25.383 27.0218C26.5481 26.957 27.1631 26.4877 27.0012 24.9342L25.6419 11.7454L22.4054 24.1251L22.9232 26.0832L21.0784 27.5558C20.9328 27.6691 20.7224 27.75 20.5768 27.75L16.2722 11.7454L15.4145 21.455C15.2041 23.8824 15.2527 26.8761 17.0328 27.0218L17.227 27.5073H12L12.1942 27.0218C13.2784 26.957 14.039 26.4877 14.1846 24.9342L15.3336 12.4898C15.4954 10.8877 14.8643 10.2404 13.7315 10.1919L13.5373 9.70642H18.5701L21.9685 22.4583L25.2697 9.70642H30.3834L30.1892 10.1919C28.9755 10.2404 28.312 10.7259 28.49 12.2795L29.7685 24.918C29.9788 26.4877 30.61 26.957 31.5971 27.0218Z" fill="#0E0E0E"/>
</svg>
