<svg width="32" height="32" viewBox="0 0 32 32" fill="none" xmlns="http://www.w3.org/2000/svg">
<rect width="32" height="32" rx="16" fill="#F59E0B"/>
<path d="M22.75 25H18.1131C18.892 24.3045 19.6266 23.5608 20.3125 22.7734C22.8859 19.8138 24.25 16.6938 24.25 13.75C24.25 11.562 23.3808 9.46354 21.8336 7.91637C20.2865 6.36919 18.188 5.5 16 5.5C13.812 5.5 11.7135 6.36919 10.1664 7.91637C8.61919 9.46354 7.75 11.562 7.75 13.75C7.75 16.6938 9.11031 19.8138 11.6875 22.7734C12.3734 23.5608 13.1079 24.3045 13.8869 25H9.25C9.05109 25 8.86032 25.079 8.71967 25.2197C8.57902 25.3603 8.5 25.5511 8.5 25.75C8.5 25.9489 8.57902 26.1397 8.71967 26.2803C8.86032 26.421 9.05109 26.5 9.25 26.5H22.75C22.9489 26.5 23.1397 26.421 23.2803 26.2803C23.421 26.1397 23.5 25.9489 23.5 25.75C23.5 25.5511 23.421 25.3603 23.2803 25.2197C23.1397 25.079 22.9489 25 22.75 25ZM9.25 13.75C9.25 11.9598 9.96116 10.2429 11.227 8.97703C12.4929 7.71116 14.2098 7 16 7C17.7902 7 19.5071 7.71116 20.773 8.97703C22.0388 10.2429 22.75 11.9598 22.75 13.75C22.75 19.1153 17.5497 23.5938 16 24.8125C14.4503 23.5938 9.25 19.1153 9.25 13.75ZM19.75 13.75C19.75 13.0083 19.5301 12.2833 19.118 11.6666C18.706 11.0499 18.1203 10.5693 17.4351 10.2855C16.7498 10.0016 15.9958 9.92736 15.2684 10.0721C14.541 10.2167 13.8728 10.5739 13.3483 11.0983C12.8239 11.6228 12.4667 12.291 12.3221 13.0184C12.1774 13.7458 12.2516 14.4998 12.5355 15.1851C12.8193 15.8703 13.2999 16.456 13.9166 16.868C14.5333 17.2801 15.2583 17.5 16 17.5C16.9946 17.5 17.9484 17.1049 18.6516 16.4017C19.3549 15.6984 19.75 14.7446 19.75 13.75ZM13.75 13.75C13.75 13.305 13.882 12.87 14.1292 12.5C14.3764 12.13 14.7278 11.8416 15.139 11.6713C15.5501 11.501 16.0025 11.4564 16.439 11.5432C16.8754 11.63 17.2763 11.8443 17.591 12.159C17.9057 12.4737 18.1199 12.8746 18.2068 13.311C18.2936 13.7475 18.249 14.1999 18.0787 14.611C17.9084 15.0222 17.62 15.3736 17.25 15.6208C16.88 15.868 16.445 16 16 16C15.4033 16 14.831 15.7629 14.409 15.341C13.9871 14.919 13.75 14.3467 13.75 13.75Z" fill="white"/>
</svg>
