<svg width="32" height="32" viewBox="0 0 32 32" fill="none" xmlns="http://www.w3.org/2000/svg">
<rect width="32" height="32" rx="16" fill="#12B24D"/>
<path d="M16 10C15.2583 10 14.5333 10.2199 13.9166 10.632C13.2999 11.044 12.8193 11.6297 12.5355 12.3149C12.2516 13.0002 12.1774 13.7542 12.3221 14.4816C12.4667 15.209 12.8239 15.8772 13.3483 16.4017C13.8728 16.9261 14.541 17.2833 15.2684 17.4279C15.9958 17.5726 16.7498 17.4984 17.4351 17.2145C18.1203 16.9307 18.706 16.4501 19.118 15.8334C19.5301 15.2167 19.75 14.4917 19.75 13.75C19.75 12.7554 19.3549 11.8016 18.6517 11.0983C17.9484 10.3951 16.9946 10 16 10ZM16 16C15.555 16 15.12 15.868 14.75 15.6208C14.38 15.3736 14.0916 15.0222 13.9213 14.611C13.751 14.1999 13.7064 13.7475 13.7932 13.311C13.88 12.8746 14.0943 12.4737 14.409 12.159C14.7237 11.8443 15.1246 11.63 15.561 11.5432C15.9975 11.4564 16.4499 11.501 16.861 11.6713C17.2722 11.8416 17.6236 12.13 17.8708 12.5C18.118 12.87 18.25 13.305 18.25 13.75C18.25 14.3467 18.0129 14.919 17.591 15.341C17.169 15.7629 16.5967 16 16 16ZM16 5.5C13.8127 5.50248 11.7157 6.37247 10.1691 7.91911C8.62247 9.46575 7.75248 11.5627 7.75 13.75C7.75 16.6938 9.11031 19.8138 11.6875 22.7734C12.8455 24.1108 14.1489 25.3151 15.5734 26.3641C15.6995 26.4524 15.8498 26.4998 16.0037 26.4998C16.1577 26.4998 16.308 26.4524 16.4341 26.3641C17.856 25.3147 19.1568 24.1104 20.3125 22.7734C22.8859 19.8138 24.25 16.6938 24.25 13.75C24.2475 11.5627 23.3775 9.46575 21.8309 7.91911C20.2843 6.37247 18.1873 5.50248 16 5.5ZM16 24.8125C14.4503 23.5938 9.25 19.1172 9.25 13.75C9.25 11.9598 9.96116 10.2429 11.227 8.97703C12.4929 7.71116 14.2098 7 16 7C17.7902 7 19.5071 7.71116 20.773 8.97703C22.0388 10.2429 22.75 11.9598 22.75 13.75C22.75 19.1153 17.5497 23.5938 16 24.8125Z" fill="white"/>
</svg>
