<svg width="32" height="32" viewBox="0 0 32 32" fill="none" xmlns="http://www.w3.org/2000/svg">
<rect width="32" height="32" rx="16" fill="#EF4444"/>
<path d="M14.501 11.4961C14.501 11.1994 14.589 10.9094 14.7538 10.6627C14.9186 10.4161 15.1529 10.2238 15.427 10.1103C15.701 9.99674 16.0026 9.96704 16.2936 10.0249C16.5846 10.0828 16.8519 10.2257 17.0616 10.4354C17.2714 10.6452 17.4143 10.9125 17.4722 11.2035C17.53 11.4944 17.5003 11.796 17.3868 12.0701C17.2733 12.3442 17.081 12.5785 16.8343 12.7433C16.5877 12.9081 16.2976 12.9961 16.001 12.9961C15.6032 12.9961 15.2216 12.8381 14.9403 12.5568C14.659 12.2754 14.501 11.8939 14.501 11.4961ZM10.001 11.4961C10.001 9.90479 10.6331 8.37867 11.7583 7.25345C12.8836 6.12823 14.4097 5.49609 16.001 5.49609C17.5923 5.49609 19.1184 6.12823 20.2436 7.25345C21.3688 8.37867 22.001 9.90479 22.001 11.4961C22.001 17.1164 16.6029 20.2655 16.376 20.3977C16.2626 20.4624 16.1343 20.4965 16.0038 20.4965C15.8732 20.4965 15.7449 20.4624 15.6316 20.3977C15.3991 20.2655 10.001 17.1211 10.001 11.4961ZM11.501 11.4961C11.501 15.4523 14.861 18.0783 16.001 18.8555C17.14 18.0792 20.501 15.4523 20.501 11.4961C20.501 10.3026 20.0269 9.15803 19.183 8.31411C18.339 7.4702 17.1945 6.99609 16.001 6.99609C14.8075 6.99609 13.6629 7.4702 12.819 8.31411C11.9751 9.15803 11.501 10.3026 11.501 11.4961ZM23.0107 17.8364C22.8261 17.7754 22.625 17.7885 22.4499 17.8729C22.2747 17.9573 22.1392 18.1063 22.0718 18.2887C22.0045 18.4711 22.0106 18.6725 22.0888 18.8504C22.1671 19.0284 22.3114 19.169 22.4913 19.2427C24.0391 19.8155 25.001 20.5823 25.001 21.2461C25.001 22.4986 21.5772 24.2461 16.001 24.2461C10.4247 24.2461 7.00098 22.4986 7.00098 21.2461C7.00098 20.5823 7.96285 19.8155 9.51066 19.2436C9.69058 19.17 9.83487 19.0293 9.91312 18.8514C9.99137 18.6734 9.99746 18.472 9.93011 18.2896C9.86275 18.1073 9.72722 17.9582 9.55208 17.8738C9.37694 17.7894 9.17588 17.7764 8.99129 17.8373C6.74035 18.667 5.50098 19.8783 5.50098 21.2461C5.50098 24.1692 10.9113 25.7461 16.001 25.7461C21.0907 25.7461 26.501 24.1692 26.501 21.2461C26.501 19.8783 25.2616 18.667 23.0107 17.8364Z" fill="white"/>
</svg>
