<svg width="259" height="32" viewBox="0 0 259 32" fill="none" xmlns="http://www.w3.org/2000/svg">
<path d="M2.76426 0C2.95923 0.0254429 3.10331 0.0852785 3.28071 0.161709C8.16425 2.26567 8.92531 5.97759 10.7012 10.406C10.7716 8.75136 10.2773 2.18128 11.1929 1.00053L11.3835 0.996518C11.8214 1.48727 11.8809 2.1951 11.9887 2.8425C12.2438 4.30866 12.3293 5.79928 12.2437 7.28502C12.1227 9.58305 11.4087 12.0525 12.1436 14.1012L12.2698 14.1379C12.4523 13.8268 12.5648 12.4552 12.6439 12.016C13.3023 8.36184 14.2041 6.25482 16.8915 3.78903C16.7373 5.63174 16.623 7.34809 15.9991 9.11514C15.1367 11.5575 13.9909 13.8851 12.8936 16.2286L13.4182 18.4744C14.7076 13.9822 16.1367 9.62457 20.765 7.5264C20.1144 11.1448 15.9624 16.9096 13.7932 20.2184C13.852 21.0155 13.8949 21.8137 13.9215 22.6125C14.0539 22.1928 14.2053 21.7793 14.3749 21.3734C16.0644 17.3548 19.4902 13.7359 23.5418 12.0822C21.6224 16.0342 17.1597 20.9236 14.1321 24.1425C14.1802 24.8138 14.1826 25.4838 14.192 26.1566C14.2301 27.3651 14.1479 31.2318 13.1684 31.9368C12.8374 32.038 12.7714 32.0154 12.4551 31.8856C12.2928 31.6863 12.1699 31.5889 12.1941 31.3081C12.3872 29.068 12.8958 27.1623 12.8491 24.878C10.1881 23.63 6.26817 22.8478 3.41617 22.0718L3.33194 21.9039L3.44723 21.7099C3.91141 21.3521 5.36269 21.0057 5.96472 20.9398C8.89969 20.6185 10.6346 21.4542 12.8668 23.1525L12.5803 21.2411C8.80924 19.697 5.513 18.98 1.72378 17.8433L1.68422 17.648C1.90492 17.3878 2.3283 17.2764 2.65408 17.1921C6.43559 16.2136 9.41376 17.042 12.4031 19.4846C12.3322 19.1114 12.1224 17.7663 11.8136 17.5605C9.51657 16.0297 5.93502 14.9906 3.34283 13.9439C2.35811 13.5463 0.577314 13.1302 0.0196099 12.6405L0.0209703 12.4403C0.400255 12.1344 1.40934 12.0299 1.90345 12.0062C6.41088 11.7901 8.50987 13.3914 11.6547 16.044C11.1814 14.812 10.9978 13.9554 9.8538 13.1426C7.28484 11.3173 4.48839 9.83261 1.64602 8.48264C1.20054 8.27109 0.15915 7.82984 0 7.3659C1.14329 6.66318 5.3577 7.99182 6.4671 8.71938C7.62547 9.47892 8.62265 10.2587 9.69204 11.1439C8.70631 9.35959 2.82253 1.41268 2.76426 0Z" fill="#1C1F16"/>
<path d="M58.8734 7.95132L63.2916 7.95212C63.2861 11.9304 63.2712 15.9155 63.2919 19.8941C63.299 21.2584 63.7771 20.7943 64.3045 21.3017C64.465 21.9327 64.3782 24.1492 64.3682 24.9288C62.3373 25.2165 60.1271 25.6793 59.5905 23.0894C59.4485 23.2811 59.2976 23.4661 59.1383 23.6437C58.0855 24.8066 57.0322 25.0708 55.5266 25.1498C47.0087 24.9019 48.5431 10.1296 56.98 12.7988C57.7375 13.0383 58.4221 13.8106 58.873 14.4392L58.8734 7.95132ZM58.7853 20.3775C58.976 19.9632 58.9362 18.1316 58.7836 17.6627C56.2156 13.9595 53.189 18.0324 54.8729 20.5191C55.8474 21.9581 57.577 21.5357 58.7853 20.3775Z" fill="#1C1F16"/>
<path d="M58.7853 20.3775C58.976 19.9632 58.9362 18.1316 58.7836 17.6627C58.5917 18.1657 58.5014 19.9291 58.7853 20.3775Z" fill="#5A5A5A" fill-opacity="0.0156863"/>
<path d="M237.966 12.224C241.592 11.9567 244.749 14.6802 245.019 18.3086C245.289 21.9371 242.569 25.0981 238.943 25.3708C235.313 25.6438 232.151 22.9191 231.881 19.2869C231.61 15.6545 234.335 12.4915 237.966 12.224ZM238.739 21.4422C241.525 20.5682 241.314 16.2058 238.096 16.1626C235.406 17.0895 235.604 21.3092 238.739 21.4422Z" fill="#1C1F16"/>
<path d="M162.948 12.2242C166.534 11.9582 169.671 14.6195 169.995 18.2033C170.319 21.7869 167.711 24.9686 164.136 25.3516C161.77 25.6049 159.453 24.5622 158.071 22.6238C156.691 20.6854 156.462 18.1526 157.472 15.9976C158.483 13.8425 160.576 12.4002 162.948 12.2242ZM163.932 21.4055C166.567 20.2724 166.099 16.0472 163.04 16.1667C160.301 17.2167 160.665 21.5834 163.932 21.4055Z" fill="#1C1F16"/>
<path d="M110.428 12.4493C111.886 12.3637 114.256 12.7382 115.357 13.7598C117.195 15.4645 116.814 17.9875 116.898 20.2332C116.93 21.1192 117.438 20.9144 117.861 21.2769C118.027 21.9296 117.944 24.129 117.935 24.9338C115.744 25.2594 113.82 25.6649 113.14 23.05C111.274 25.1895 108.839 25.8456 106.337 24.3428C103.081 21.9403 104.999 17.7274 108.552 17.1684C109.719 16.9849 111.112 16.8015 112.14 17.4755L112.403 17.4088C112.849 16.7238 111.956 15.6627 111.254 15.5158C109.46 15.1409 108.039 15.8471 106.557 16.7532L105.276 14.0019C107.061 12.9143 108.376 12.6007 110.428 12.4493ZM111.085 21.8986C112.35 21.3287 112.505 21.1583 112.462 19.7343C111.687 19.5403 111.027 19.3698 110.216 19.4502C108.042 20.261 108.591 22.191 111.085 21.8986Z" fill="#1C1F16"/>
<path d="M194.112 12.4495C198.791 12.271 201.606 15.5537 200.989 20.1432L193.197 20.0922C192.817 20.086 192.716 20.117 192.484 20.3413C192.447 20.6604 192.629 20.9408 192.808 21.1911C193.998 22.856 195.643 21.7732 196.851 20.9094C197.579 20.8638 199.515 21.5216 200.297 21.7594L200.426 21.8815C200.351 22.2234 200.095 22.52 199.881 22.7906C197.641 25.6086 192.631 25.9776 189.865 23.6427C188.634 22.5912 187.873 21.0919 187.752 19.4773C187.411 15.3029 190.104 12.7585 194.112 12.4495ZM192.211 17.5012L194.943 17.499C195.36 17.5147 195.881 17.5948 196.197 17.346C196.775 16.2303 194.796 15.5325 193.849 15.6034C192.768 16.0834 192.652 16.4057 192.211 17.5012Z" fill="#1C1F16"/>
<path d="M91.6881 12.4497C95.0428 12.2324 98.1463 14.3183 98.5978 17.7566C98.7129 18.6326 98.6686 19.2558 98.602 20.1427C97.3706 20.1444 90.7768 19.9911 90.0584 20.1805C89.6943 21.7868 92.9696 23.0076 94.3701 20.7573L97.9878 21.7932L98.024 21.8702C97.3643 23.8393 94.7075 24.8935 92.819 25.108C83.6993 26.144 82.2927 13.1443 91.6881 12.4497ZM92.3574 17.499C92.9205 17.5028 93.603 17.6164 93.9683 17.3269C94.0318 17.1446 94.1004 16.9967 93.9654 16.8282C93.2425 15.9264 92.5771 15.5895 91.5137 15.5935C90.8469 15.8398 89.6868 16.6605 89.9899 17.4696C90.7189 17.5909 91.6064 17.4932 92.3574 17.499Z" fill="#1C1F16"/>
<path d="M254.97 12.4489C255.059 12.4443 255.147 12.442 255.235 12.4422C258.213 12.4489 259.001 14.6335 259 17.1828C258.999 19.7541 258.993 22.3331 258.985 24.9046H254.567C254.556 23.2164 255.013 17.8014 254.063 16.7084C253.864 16.4791 253.584 16.3313 253.279 16.3128C252.777 16.2822 252.308 16.5573 251.943 16.8771C251.544 17.2272 251.143 17.7228 251.111 18.273V24.9044L246.692 24.9045V12.677L250.667 12.6772L250.668 14.457C250.726 14.3789 250.787 14.3024 250.85 14.2279C251.996 12.866 253.285 12.5899 254.97 12.4489Z" fill="#1C1F16"/>
<path d="M208.32 12.4481C211.213 12.4005 213.074 13.3134 214.601 15.7736L210.301 17.0785C210.21 16.9744 210.116 16.8739 210.017 16.7772C209.599 16.3736 209.037 16.1542 208.456 16.1676C206.252 16.214 205.753 19.9235 207.358 21.028C208.459 21.7851 209.464 21.4346 210.28 20.5296C211.621 20.9019 213.019 21.3436 214.358 21.7428L214.471 21.8201C214.443 22.8152 212.219 24.4156 211.279 24.7396C204.657 27.0222 199.075 20.4614 203.386 14.6281C204.466 13.1672 206.507 12.5831 208.32 12.4481Z" fill="#1C1F16"/>
<path d="M149.935 12.4482C152.822 12.4418 154.69 13.2669 156.209 15.7751L151.916 17.0773C151.84 16.9901 151.761 16.9057 151.679 16.8244C151.268 16.4203 150.418 16.0632 149.87 16.1232C147.353 16.3988 147.572 21.414 150.109 21.5204C150.754 21.5475 151.472 21.0002 151.896 20.5301C153.241 20.9057 154.637 21.3452 155.98 21.7455L156.102 21.8447C156.092 22.1853 155.765 22.5656 155.551 22.8289C153.282 25.6291 148.438 25.9945 145.651 23.5994C144.408 22.5132 143.647 20.9783 143.534 19.3311C143.221 15.2173 146.01 12.7394 149.935 12.4482Z" fill="#1C1F16"/>
<path d="M78.4776 12.4496C81.37 12.4206 83.2468 13.2772 84.7719 15.7744L80.4713 17.0812C80.3726 16.967 80.2697 16.8562 80.1629 16.7495C79.3509 15.9464 78.0439 15.9961 77.2367 16.828C75.9449 18.1594 76.6264 21.493 78.7877 21.4533C79.4863 21.4406 80.0004 21.0436 80.4643 20.5308C81.8019 20.9006 83.2226 21.3553 84.56 21.7559L84.6751 21.8482C84.6433 22.1516 84.3521 22.5701 84.1392 22.7925C82.5993 24.3916 81.7938 24.824 79.6439 25.1006C73.5341 25.8868 69.8085 19.5455 73.5417 14.6656C74.6835 13.1731 76.5446 12.5968 78.4776 12.4496Z" fill="#1C1F16"/>
<path d="M129.924 8.85788L134.342 8.85799V12.6775L136.731 12.6774L136.732 16.0188L134.342 16.0185C134.351 16.5539 134.326 17.0923 134.328 17.6271C134.336 20.0465 133.76 21.8026 136.884 20.7683L137.614 24.0593L137.588 24.2291C135.898 25.219 132.037 25.6725 130.666 24.0988C129.526 22.7913 129.915 17.8191 129.924 16.0183L128.416 16.0181V12.6773L129.924 12.6757V8.85788Z" fill="#1C1F16"/>
<path d="M216.775 8.85674L221.194 8.85776V12.6768L223.586 12.6775V16.0185L221.194 16.0188C221.215 17.3764 221.009 19.0263 221.246 20.3086C221.477 21.5638 223.005 21.0117 223.726 20.7684L224.479 24.061L224.435 24.2363C222.761 25.2097 218.952 25.6911 217.576 24.1202C216.339 22.7094 216.765 17.9475 216.775 16.0187L215.277 16.0181V12.6778L216.775 12.6775V8.85674Z" fill="#1C1F16"/>
<path d="M171.616 7.95291L176.035 7.95189C176.032 9.8528 175.774 19.5507 176.266 20.6809C176.341 20.8527 176.556 21.0272 176.734 21.0928C177.262 21.2882 177.887 21.0072 178.37 20.7952C178.472 21.4123 179.022 24.0634 178.766 24.438C176.397 25.4172 172.213 25.9551 171.708 22.4088C171.496 20.9186 171.609 19.1028 171.61 17.5681L171.616 7.95291Z" fill="#1C1F16"/>
<path d="M35.3197 7.95019L39.7394 7.95189C39.736 9.98529 39.4439 19.3426 39.9566 20.6408C40.041 20.8545 40.2175 20.9951 40.4316 21.0822C40.9675 21.3003 41.6121 21.0019 42.1075 20.7966C42.1869 21.438 42.7282 24.0807 42.5039 24.4295C41.4099 24.8994 40.0926 25.136 38.9075 25.1662C34.5106 25.2781 35.3129 20.4203 35.3149 17.4789L35.3197 7.95019Z" fill="#1C1F16"/>
<path d="M180.056 7.9511L184.476 7.95212C184.48 9.85722 184.189 19.5814 184.673 20.6356C184.765 20.8357 184.986 20.9995 185.189 21.0776C185.728 21.2848 186.343 21.0117 186.838 20.7985C186.935 21.4178 187.419 24.0467 187.262 24.4213C186.163 24.8907 184.881 25.1289 183.689 25.1658C179.249 25.3029 180.05 20.4788 180.052 17.5166L180.056 7.9511Z" fill="#1C1F16"/>
<path d="M126.937 12.4395C127.239 12.4269 127.331 12.4176 127.629 12.5066C127.818 12.9118 127.726 15.8442 127.72 16.4523C126.94 16.4766 123.893 16.6934 123.855 17.8329C123.777 20.1673 123.824 22.5641 123.833 24.9046L119.413 24.9045V12.6769L123.47 12.6774V14.9625C124.317 13.4918 125.236 12.7173 126.937 12.4395Z" fill="#1C1F16"/>
<path d="M66.1052 12.6776L70.5221 12.6767L70.5225 24.905L66.1045 24.9044L66.1052 12.6776Z" fill="#1C1F16"/>
<path d="M225.8 12.6789L230.216 12.6787L230.217 24.9055L225.798 24.9046L225.8 12.6789Z" fill="#1C1F16"/>
<path d="M43.8552 12.6789L48.2714 12.6786L48.2723 24.906L43.8545 24.9046L43.8552 12.6789Z" fill="#1C1F16"/>
<path d="M66.1045 7.95212L70.5222 7.95234C70.5222 8.85209 70.5834 10.872 70.4664 11.6644L66.1045 11.6667V7.95212Z" fill="#1C1F16"/>
<path d="M225.798 7.95291L230.216 7.95189C230.223 9.09404 230.263 10.5513 230.189 11.6645L225.798 11.6637V7.95291Z" fill="#1C1F16"/>
<path d="M43.8544 7.95314L48.2715 7.95189C48.2896 9.18933 48.2838 10.4271 48.2544 11.6643L43.8544 11.6637V7.95314Z" fill="#1C1F16"/>
<path d="M35.0569 8.03572C35.2587 8.35117 35.1679 20.7731 35.1668 22.2216L35.055 22.142L35.0569 8.03572Z" fill="#5A5A5A" fill-opacity="0.0117647"/>
<path d="M48.4325 12.7999C48.6526 13.1073 48.5479 23.5986 48.5459 24.8238C48.3259 24.5164 48.4305 14.0251 48.4325 12.7999Z" fill="#7E7E7E" fill-opacity="0.0156863"/>
<path d="M230.367 12.7999C230.587 13.1073 230.482 23.5986 230.48 24.8238C230.26 24.5164 230.364 14.0251 230.367 12.7999Z" fill="#7E7E7E" fill-opacity="0.0156863"/>
<path d="M176.183 8.03572C176.402 8.40165 176.295 18.7948 176.278 20.1569C176.054 19.6156 176.181 9.34847 176.183 8.03572Z" fill="#5A5A5A" fill-opacity="0.0117647"/>
<path d="M246.69 25.1641C247.234 25.0387 250.511 25.0881 251.111 25.1641C250.566 25.2894 247.289 25.2401 246.69 25.1641Z" fill="#5A5A5A" fill-opacity="0.0156863"/>
<path d="M66.0969 11.8924C66.6384 11.7714 69.9255 11.8144 70.5178 11.8924C69.9931 12.0206 66.6932 11.965 66.0969 11.8924Z" fill="#7E7E7E" fill-opacity="0.0156863"/>
<path d="M66.1037 25.164C66.657 25.0412 69.9169 25.0848 70.5154 25.164C69.9954 25.2921 66.696 25.2371 66.1037 25.164Z" fill="#5A5A5A" fill-opacity="0.0156863"/>
<path d="M119.414 25.1641C119.933 25.036 123.233 25.091 123.826 25.1641C123.273 25.2869 120.013 25.2433 119.414 25.1641Z" fill="#5A5A5A" fill-opacity="0.0156863"/>
<path d="M43.8428 11.8924C44.4395 11.7721 47.6162 11.8182 48.2614 11.8924C47.6647 12.0128 44.488 11.9666 43.8428 11.8924Z" fill="#7E7E7E" fill-opacity="0.0156863"/>
<path d="M43.8517 25.1641C44.4392 25.0427 47.618 25.0901 48.2525 25.1641C47.665 25.2854 44.4862 25.238 43.8517 25.1641Z" fill="#5A5A5A" fill-opacity="0.0156863"/>
<path d="M254.578 25.1641C255.165 25.0427 258.344 25.0901 258.978 25.1641C258.391 25.2854 255.213 25.238 254.578 25.1641Z" fill="#5A5A5A" fill-opacity="0.0156863"/>
<path d="M225.813 11.8924C226.367 11.7689 229.573 11.8211 230.195 11.8924C229.605 12.0116 226.443 11.9697 225.813 11.8924Z" fill="#7E7E7E" fill-opacity="0.0156863"/>
<path d="M225.82 25.164C226.364 25.0403 229.572 25.0925 230.186 25.164C229.608 25.2836 226.441 25.2413 225.82 25.164Z" fill="#5A5A5A" fill-opacity="0.0156863"/>
<path d="M48.4325 8.03572C48.6366 8.24114 48.5495 11.0576 48.5459 11.5521C48.3419 11.3467 48.4289 8.53028 48.4325 8.03572Z" fill="#7E7E7E" fill-opacity="0.0156863"/>
<path d="M230.367 8.03572C230.571 8.24114 230.483 11.0576 230.48 11.5521C230.276 11.3467 230.363 8.53028 230.367 8.03572Z" fill="#7E7E7E" fill-opacity="0.0156863"/>
<path d="M109.509 12.2327C110.385 12.1422 111.172 12.1659 112.046 12.2327C111.167 12.3259 110.386 12.2978 109.509 12.2327Z" fill="#7E7E7E" fill-opacity="0.027451"/>
</svg>
